<svg preserveAspectRatio="xMidYMid meet" viewBox="250.56 302.40000000000003 576.72 492.48" xmlns="http://www.w3.org/2000/svg" version="1.0" style="max-height: 500px" width="576.72" height="492.48">

<g stroke="none" fill="#ffffff" transform="translate(0.000000,1080.000000) scale(0.100000,-0.100000)">
<path d="M2922 7685 c-40 -14 -89 -36 -110 -49 -92 -58 -176 -167 -211 -273&#10;l-21 -63 2 -2007 3 -2008 23 -56 c56 -134 178 -249 314 -293 l77 -26 2401 0&#10;2401 0 77 26 c136 44 258 159 314 293 l23 56 3 2008 2 2007 -21 63 c-35 106&#10;-119 215 -211 273 -21 13 -71 35 -112 49 l-75 25 -2403 0 -2403 -1 -73 -24z&#10;m4656 -105 c208 -27 384 -191 428 -399 21 -99 21 -3643 0 -3742 -44 -207 -221&#10;-372 -427 -399 -100 -13 -4258 -13 -4358 0 -206 27 -383 192 -427 399 -21 99&#10;-21 3643 0 3742 33 153 133 283 272 350 52 25 106 43 146 48 90 12 4276 13&#10;4366 1z"/>
<path d="M4890 7110 c-24 -24 -24 -29 -4 -58 28 -41 94 -22 94 28 0 48 -54 66&#10;-90 30z"/>
<path d="M5106 7048 c-3 -13 -6 -33 -6 -45 0 -19 -6 -23 -30 -23 -28 0 -30 -2&#10;-30 -40 0 -38 2 -40 30 -40 l30 0 0 -96 c0 -52 5 -104 10 -115 16 -28 63 -49&#10;115 -49 45 0 45 0 45 34 0 31 -3 34 -39 40 -45 7 -51 19 -51 118 l0 67 48 3&#10;c47 3 47 3 47 38 0 35 0 35 -47 38 l-48 3 0 45 c0 43 0 44 -34 44 -26 0 -35&#10;-5 -40 -22z"/>
<path d="M6206 7048 c-3 -13 -6 -33 -6 -45 0 -19 -6 -23 -30 -23 -28 0 -30 -2&#10;-30 -40 0 -38 2 -40 30 -40 l30 0 0 -96 c0 -52 5 -104 10 -115 16 -28 63 -49&#10;115 -49 45 0 45 0 45 34 0 31 -3 34 -39 40 -45 7 -51 19 -51 118 l0 67 48 3&#10;c47 3 47 3 47 38 0 35 0 35 -47 38 l-48 3 0 45 c0 43 0 44 -34 44 -26 0 -35&#10;-5 -40 -22z"/>
<path d="M3477 6979 c-49 -8 -88 -37 -104 -77 l-13 -32 40 0 c27 0 47 7 60 20&#10;13 13 33 20 59 20 40 0 54 -10 65 -47 7 -22 5 -23 -59 -23 -129 0 -196 -61&#10;-160 -147 27 -64 131 -82 197 -33 l29 22 6 -21 c4 -16 13 -21 39 -21 l34 0 0&#10;125 c0 72 -5 135 -12 149 -23 51 -100 79 -181 65z m103 -214 c0 -26 -47 -65&#10;-78 -65 -33 0 -52 16 -52 45 0 31 7 35 72 35 46 0 58 -3 58 -15z"/>
<path d="M5477 6979 c-78 -13 -129 -72 -135 -157 -7 -104 49 -174 150 -188 60&#10;-8 130 22 158 68 27 45 26 48 -18 48 -26 0 -45 -7 -56 -19 -48 -53 -146 -22&#10;-146 45 0 11 24 14 125 14 l125 0 0 36 c0 103 -92 172 -203 153z m93 -89 c40&#10;-40 27 -50 -60 -50 -87 0 -96 7 -58 47 28 30 89 32 118 3z"/>
<path d="M7250 6980 c-19 -4 -45 -12 -58 -19 -21 -11 -62 -66 -62 -83 0 -5 19&#10;-8 43 -8 31 0 45 5 55 20 8 14 23 20 48 20 48 0 74 -16 74 -45 0 -24 -3 -25&#10;-60 -25 -114 0 -180 -50 -166 -126 16 -81 143 -111 210 -49 l25 23 3 -22 c2&#10;-17 11 -22 41 -24 l39 -3 -4 135 c-3 136 -3 136 -33 166 -34 33 -98 50 -155&#10;40z m100 -205 c0 -22 -35 -66 -55 -71 -56 -14 -96 17 -75 57 9 15 22 19 70 19&#10;33 0 60 -2 60 -5z"/>
<path d="M3760 6811 l0 -171 40 0 40 0 0 85 c0 131 16 158 100 167 22 3 25 9&#10;28 46 3 41 2 42 -27 42 -19 0 -43 -11 -65 -30 l-35 -31 -3 28 c-3 24 -8 28&#10;-40 31 l-38 3 0 -170z"/>
<path d="M4092 6960 c-90 -55 -105 -190 -31 -275 52 -59 145 -70 203 -24 l26&#10;20 0 -95 0 -96 45 0 45 0 0 245 0 245 -40 0 c-33 0 -40 -3 -40 -20 0 -11 -3&#10;-20 -6 -20 -3 0 -17 9 -31 20 -35 28 -126 28 -171 0z m169 -79 c61 -62 24&#10;-171 -58 -171 -45 0 -69 14 -88 50 -53 102 66 200 146 121z"/>
<path d="M4463 6964 c-3 -8 -3 -66 -1 -128 4 -85 10 -121 24 -144 39 -67 138&#10;-80 194 -27 l27 26 7 -25 c5 -22 12 -26 41 -26 l35 0 0 170 0 170 -40 0 -40 0&#10;0 -95 c0 -145 -23 -183 -106 -173 -43 5 -54 37 -54 161 l0 107 -40 0 c-28 0&#10;-43 -5 -47 -16z"/>
<path d="M4890 6810 l0 -170 40 0 40 0 0 170 0 170 -40 0 -40 0 0 -170z"/>
<path d="M5829 6957 c-55 -37 -79 -81 -79 -146 0 -98 54 -163 146 -177 79 -12&#10;184 49 184 107 0 31 -70 26 -98 -6 -28 -32 -90 -35 -116 -6 -24 27 -34 70 -25&#10;111 16 69 87 93 135 45 19 -19 35 -25 70 -25 l44 0 -20 40 c-29 57 -71 80&#10;-146 80 -47 0 -69 -5 -95 -23z"/>
<path d="M6443 6964 c-3 -8 -3 -66 -1 -128 4 -85 10 -121 24 -144 39 -67 138&#10;-80 194 -27 l27 26 7 -25 c5 -22 12 -26 41 -26 l35 0 0 170 0 170 -40 0 -40 0&#10;0 -95 c0 -145 -23 -183 -106 -173 -43 5 -54 37 -54 161 l0 107 -40 0 c-28 0&#10;-43 -5 -47 -16z"/>
<path d="M6867 6973 c-4 -3 -7 -80 -7 -170 l0 -163 44 0 44 0 4 106 c3 97 5&#10;107 27 125 13 10 38 19 57 19 34 0 34 1 34 45 0 39 -3 45 -20 45 -28 0 -77&#10;-26 -88 -47 -8 -13 -11 -11 -17 15 -6 28 -11 32 -39 32 -18 0 -36 -3 -39 -7z"/>
<path d="M3934 6170 c-167 -21 -316 -92 -415 -198 -64 -68 -98 -126 -123 -211&#10;-31 -105 -35 -101 114 -101 l130 0 6 28 c18 72 69 148 130 192 152 109 413 97&#10;537 -24 63 -63 107 -174 107 -275 l0 -38 -277 -6 c-284 -7 -362 -16 -475 -56&#10;-130 -45 -229 -129 -281 -238 -31 -65 -32 -73 -32 -193 0 -120 1 -128 32 -192&#10;56 -119 147 -197 285 -245 108 -38 290 -44 407 -14 46 11 105 33 130 48 62 36&#10;141 112 188 180 l38 56 6 -109 c4 -60 7 -122 8 -137 l1 -28 113 3 112 3 3 500&#10;c3 579 -1 617 -69 754 -95 192 -263 292 -514 305 -49 2 -122 1 -161 -4z m486&#10;-878 c0 -103 -65 -269 -136 -345 -103 -111 -205 -152 -362 -145 -193 8 -301&#10;99 -302 254 0 130 76 220 220 260 30 8 131 13 313 13 l267 1 0 -38z"/>
<path d="M5702 6169 c-133 -20 -261 -91 -335 -185 l-42 -55 -6 28 c-4 15 -7&#10;49 -8 74 0 26 -4 61 -7 78 l-6 31 -114 0 -114 0 0 -765 0 -766 128 3 127 3 5&#10;480 c5 427 8 486 24 535 45 136 119 230 227 287 50 26 62 28 169 28 101 0 121&#10;-3 164 -24 66 -32 122 -91 153 -157 47 -103 52 -171 53 -682 l0 -473 128 3&#10;127 3 5 475 c6 515 8 527 66 642 36 70 121 153 191 185 76 35 215 44 291 19&#10;104 -35 175 -110 214 -225 22 -64 23 -82 28 -581 l5 -515 125 0 125 0 0 525&#10;c0 513 0 527 -23 610 -31 118 -64 181 -134 256 -244 260 -735 214 -936 -89&#10;l-25 -38 -29 52 c-58 101 -179 191 -299 222 -75 20 -202 27 -277 16z"/>
<path d="M5230 3894 l0 -96 -35 22 c-38 23 -102 29 -145 12 -89 -35 -127 -159&#10;-77 -252 44 -84 152 -113 225 -61 29 21 30 21 35 1 4 -15 14 -20 41 -20 l36 0&#10;0 245 0 245 -40 0 -40 0 0 -96z m-51 -139 c58 -29 66 -124 14 -165 -63 -49&#10;-153 -3 -153 80 0 33 6 48 29 71 33 32 67 37 110 14z"/>
<path d="M6140 3745 l0 -245 45 0 45 0 0 245 0 245 -45 0 -45 0 0 -245z"/>
<path d="M3750 3842 c-14 -2 -37 -13 -51 -23 -26 -18 -27 -18 -32 1 -4 15 -14&#10;20 -41 20 l-36 0 0 -170 0 -170 40 0 40 0 1 93 c0 145 28 192 103 173 37 -9&#10;46 -40 46 -162 l0 -104 45 0 45 0 0 109 c0 94 3 112 21 135 15 19 30 26 54 26&#10;55 0 65 -25 65 -157 l0 -113 45 0 45 0 0 115 c0 131 -14 181 -59 208 -44 26&#10;-119 22 -161 -7 l-35 -24 -22 20 c-24 22 -75 36 -113 30z"/>
<path d="M4459 3817 c-75 -51 -102 -150 -63 -233 47 -98 182 -122 265 -47 46&#10;41 63 88 57 155 -6 55 -28 92 -78 126 -46 31 -134 31 -181 -1z m145 -73 c36&#10;-37 37 -114 1 -149 -66 -67 -156 3 -134 105 16 69 84 92 133 44z"/>
<path d="M5562 3706 c3 -118 6 -138 24 -163 44 -59 134 -67 194 -17 l30 26 0&#10;-26 c0 -24 4 -26 40 -26 l40 0 0 170 0 170 -45 0 -45 0 0 -109 c0 -94 -3 -112&#10;-21 -135 -16 -20 -29 -26 -58 -26 -61 0 -70 18 -73 150 l-3 115 -43 3 -44 3 4&#10;-135z"/>
<path d="M6554 3830 c-25 -10 -74 -66 -74 -86 0 -23 73 -18 95 6 26 29 89 27&#10;109 -2 28 -40 21 -48 -41 -48 -117 0 -173 -36 -173 -110 0 -96 138 -132 218&#10;-58 l22 21 0 -26 c0 -25 3 -27 40 -27 l40 0 -1 113 c0 61 -5 128 -12 147 -18&#10;53 -67 80 -141 79 -34 0 -70 -4 -82 -9z m131 -220 c-17 -33 -43 -50 -77 -50&#10;-28 0 -48 17 -48 40 0 29 23 40 82 40 l59 0 -16 -30z"/>
<path d="M7030 3670 l0 -170 45 0 45 0 0 100 c0 94 2 103 25 125 16 17 35 25&#10;60 25 35 0 35 0 35 45 0 41 -2 45 -24 45 -13 0 -40 -11 -60 -25 -20 -14 -39&#10;-25 -41 -25 -3 0 -5 11 -5 25 0 23 -4 25 -40 25 l-40 0 0 -170z"/>
</g>
</svg>