<svg preserveAspectRatio="xMidYMid meet" viewBox="250.56 302.40000000000003 576.72 492.48" xmlns="http://www.w3.org/2000/svg" version="1.0" style="max-height: 500px" width="576.72" height="492.48">

<g stroke="none" fill="#ffffff" transform="translate(0.000000,1080.000000) scale(0.100000,-0.100000)">
<path d="M2922 7685 c-40 -14 -89 -36 -110 -49 -92 -58 -176 -167 -211 -273&#10;l-21 -63 2 -2007 3 -2008 23 -56 c56 -134 178 -249 314 -293 l77 -26 2401 0&#10;2401 0 77 26 c136 44 258 159 314 293 l23 56 3 2008 2 2007 -21 63 c-35 106&#10;-119 215 -211 273 -21 13 -71 35 -112 49 l-75 25 -2403 0 -2403 -1 -73 -24z&#10;m4656 -105 c208 -27 384 -191 428 -399 21 -99 21 -3643 0 -3742 -44 -207 -221&#10;-372 -427 -399 -100 -13 -4258 -13 -4358 0 -206 27 -383 192 -427 399 -21 99&#10;-21 3643 0 3742 33 153 133 283 272 350 52 25 106 43 146 48 90 12 4276 13&#10;4366 1z"/>
<path d="M7018 7103 c-60 -32 -68 -39 -68 -65 0 -16 4 -28 8 -26 129 54 142&#10;62 142 95 0 18 -3 33 -7 33 -5 0 -38 -17 -75 -37z"/>
<path d="M6637 7112 c-22 -24 -21 -45 1 -65 35 -32 92 -11 92 33 0 45 -62 66&#10;-93 32z"/>
<path d="M4886 7048 c-3 -13 -6 -33 -6 -45 0 -19 -6 -23 -30 -23 -28 0 -30 -2&#10;-30 -40 0 -38 2 -40 30 -40 l30 0 0 -96 c0 -52 5 -104 10 -115 16 -28 63 -49&#10;115 -49 45 0 45 0 45 34 0 31 -3 34 -39 40 -45 7 -51 19 -51 118 l0 67 48 3&#10;c47 3 47 3 47 38 0 35 0 35 -47 38 l-48 3 0 45 c0 43 0 44 -34 44 -26 0 -35&#10;-5 -40 -22z"/>
<path d="M3788 6980 c-94 -17 -149 -102 -133 -208 10 -66 71 -127 137 -137&#10;113 -17 200 57 201 170 2 118 -88 195 -205 175z m89 -94 c24 -21 28 -32 28&#10;-74 0 -40 -5 -56 -24 -76 -39 -42 -101 -34 -126 15 -25 47 -19 96 14 130 36&#10;36 70 37 108 5z"/>
<path d="M4576 6979 c-49 -8 -96 -56 -96 -98 0 -42 41 -78 107 -92 70 -16 102&#10;-40 87 -66 -18 -30 -75 -29 -104 2 -17 18 -34 25 -62 25 -41 0 -44 -5 -26 -45&#10;24 -54 119 -86 194 -66 56 15 89 52 89 101 0 51 -25 76 -94 95 -84 23 -101 33&#10;-101 55 0 13 9 22 26 26 28 7 74 -9 74 -26 0 -5 18 -10 40 -10 49 0 52 16 12&#10;61 -31 35 -84 49 -146 38z"/>
<path d="M5938 6980 c-66 -12 -118 -63 -134 -133 -36 -165 166 -285 286 -169&#10;21 20 41 47 45 60 6 20 3 22 -35 22 -33 0 -46 -5 -62 -25 -14 -18 -29 -25 -53&#10;-25 -47 0 -64 8 -80 41 -53 101 55 214 129 134 18 -19 33 -25 65 -25 47 0 48&#10;3 21 47 -35 58 -104 86 -182 73z"/>
<path d="M6347 6979 c-110 -18 -170 -145 -118 -251 61 -125 243 -128 307 -6&#10;19 37 19 38 -27 38 -32 0 -47 -6 -65 -25 -53 -57 -144 -16 -144 65 0 99 77&#10;145 141 84 21 -20 34 -25 68 -22 l41 3 -17 34 c-33 64 -103 94 -186 80z"/>
<path d="M3331 6963 c-91 -45 -116 -189 -45 -272 69 -82 221 -75 274 12 29 48&#10;26 57 -21 57 -32 0 -46 -6 -61 -25 -27 -35 -85 -35 -119 1 -19 20 -24 36 -24&#10;76 0 42 4 53 28 74 37 32 81 31 113 -1 18 -18 36 -25 64 -25 23 0 40 5 40 11&#10;0 25 -42 78 -74 93 -44 21 -132 20 -175 -1z"/>
<path d="M4077 6973 c-4 -3 -7 -80 -7 -170 l0 -163 45 0 45 0 0 100 c0 136 18&#10;170 89 170 53 0 66 -29 69 -156 l4 -114 39 0 39 0 0 125 c0 175 -23 215 -126&#10;215 -41 0 -59 -5 -82 -25 -31 -26 -42 -24 -42 7 0 14 -8 18 -33 18 -19 0 -37&#10;-3 -40 -7z"/>
<path d="M5130 6810 l0 -170 45 0 45 0 0 104 c0 101 1 105 26 125 15 12 41 21&#10;60 21 34 0 34 1 34 45 0 43 -1 45 -30 45 -19 0 -42 -11 -65 -31 l-35 -31 0 31&#10;c0 30 -2 31 -40 31 l-40 0 0 -170z"/>
<path d="M5393 6964 c-3 -8 -3 -66 -1 -128 4 -85 10 -121 24 -144 39 -67 138&#10;-80 194 -27 l27 26 7 -25 c5 -22 12 -26 41 -26 l35 0 0 170 0 170 -40 0 -40 0&#10;0 -95 c0 -145 -23 -183 -106 -173 -43 5 -54 37 -54 161 l0 107 -40 0 c-28 0&#10;-43 -5 -47 -16z"/>
<path d="M6630 6810 l0 -170 45 0 45 0 0 170 0 170 -45 0 -45 0 0 -170z"/>
<path d="M6880 6958 c-52 -36 -73 -71 -78 -132 -9 -112 60 -191 168 -191 104&#10;0 170 69 170 178 0 62 -25 108 -79 144 -47 32 -135 32 -181 1z m139 -65 c42&#10;-34 44 -121 5 -164 -25 -28 -79 -25 -109 6 -20 19 -25 34 -25 75 0 41 5 56 25&#10;75 29 30 73 33 104 8z"/>
<path d="M7220 6810 l0 -170 45 0 45 0 0 110 c0 104 1 112 25 135 30 31 84 34&#10;110 5 14 -15 19 -43 23 -135 l5 -115 38 0 39 0 0 119 c0 131 -7 160 -46 196&#10;-38 35 -116 35 -168 0 l-36 -24 0 24 c0 22 -4 25 -40 25 l-40 0 0 -170z"/>
<path d="M3951 6170 c-80 -11 -190 -44 -251 -75 -176 -89 -321 -274 -376 -480&#10;-26 -97 -27 -379 -1 -475 57 -216 218 -409 412 -495 113 -50 169 -59 335 -59&#10;140 0 163 3 235 27 224 74 397 253 440 455 l7 32 -132 0 c-116 0 -131 -2 -136&#10;-17 -56 -180 -212 -283 -425 -283 -136 0 -245 45 -339 140 -101 102 -148 220&#10;-157 395 -16 297 112 517 344 594 69 23 205 28 282 10 123 -28 242 -122 278&#10;-219 l21 -55 131 -3 c72 -1 131 1 131 6 0 17 -38 118 -60 162 -75 149 -239&#10;275 -416 320 -91 24 -234 32 -323 20z"/>
<path d="M5749 6170 c-135 -21 -237 -76 -328 -177 l-59 -65 -7 106 -7 106&#10;-119 0 -119 0 2 -762 3 -763 127 -3 127 -3 4 473 c3 414 6 480 21 533 43 144&#10;121 247 230 300 50 24 76 30 152 33 184 8 300 -68 356 -237 22 -64 23 -82 28&#10;-581 l5 -515 127 -3 126 -3 4 468 c5 505 6 515 63 641 32 71 124 165 194 200&#10;51 25 66 27 171 27 100 0 121 -3 162 -23 91 -45 148 -120 186 -245 13 -44 16&#10;-133 19 -559 l4 -508 125 0 125 0 -4 548 c-4 604 -3 593 -70 732 -36 73 -119&#10;163 -187 203 -25 14 -81 38 -125 53 -68 23 -97 27 -190 27 -130 1 -206 -17&#10;-307 -70 -82 -43 -157 -108 -203 -175 l-33 -49 -25 44 c-66 112 -179 197 -308&#10;230 -73 20 -202 27 -270 17z"/>
<path d="M5230 3894 l0 -96 -35 22 c-38 23 -102 29 -145 12 -89 -35 -127 -159&#10;-77 -252 44 -84 152 -113 225 -61 29 21 30 21 35 1 4 -15 14 -20 41 -20 l36 0&#10;0 245 0 245 -40 0 -40 0 0 -96z m-51 -139 c58 -29 66 -124 14 -165 -63 -49&#10;-153 -3 -153 80 0 33 6 48 29 71 33 32 67 37 110 14z"/>
<path d="M6140 3745 l0 -245 45 0 45 0 0 245 0 245 -45 0 -45 0 0 -245z"/>
<path d="M3750 3842 c-14 -2 -37 -13 -51 -23 -26 -18 -27 -18 -32 1 -4 15 -14&#10;20 -41 20 l-36 0 0 -170 0 -170 40 0 40 0 1 93 c0 145 28 192 103 173 37 -9&#10;46 -40 46 -162 l0 -104 45 0 45 0 0 109 c0 94 3 112 21 135 15 19 30 26 54 26&#10;55 0 65 -25 65 -157 l0 -113 45 0 45 0 0 115 c0 131 -14 181 -59 208 -44 26&#10;-119 22 -161 -7 l-35 -24 -22 20 c-24 22 -75 36 -113 30z"/>
<path d="M4459 3817 c-75 -51 -102 -150 -63 -233 47 -98 182 -122 265 -47 46&#10;41 63 88 57 155 -6 55 -28 92 -78 126 -46 31 -134 31 -181 -1z m145 -73 c36&#10;-37 37 -114 1 -149 -66 -67 -156 3 -134 105 16 69 84 92 133 44z"/>
<path d="M5562 3706 c3 -118 6 -138 24 -163 44 -59 134 -67 194 -17 l30 26 0&#10;-26 c0 -24 4 -26 40 -26 l40 0 0 170 0 170 -45 0 -45 0 0 -109 c0 -94 -3 -112&#10;-21 -135 -16 -20 -29 -26 -58 -26 -61 0 -70 18 -73 150 l-3 115 -43 3 -44 3 4&#10;-135z"/>
<path d="M6554 3830 c-25 -10 -74 -66 -74 -86 0 -23 73 -18 95 6 26 29 89 27&#10;109 -2 28 -40 21 -48 -41 -48 -117 0 -173 -36 -173 -110 0 -96 138 -132 218&#10;-58 l22 21 0 -26 c0 -25 3 -27 40 -27 l40 0 -1 113 c0 61 -5 128 -12 147 -18&#10;53 -67 80 -141 79 -34 0 -70 -4 -82 -9z m131 -220 c-17 -33 -43 -50 -77 -50&#10;-28 0 -48 17 -48 40 0 29 23 40 82 40 l59 0 -16 -30z"/>
<path d="M7030 3670 l0 -170 45 0 45 0 0 100 c0 94 2 103 25 125 16 17 35 25&#10;60 25 35 0 35 0 35 45 0 41 -2 45 -24 45 -13 0 -40 -11 -60 -25 -20 -14 -39&#10;-25 -41 -25 -3 0 -5 11 -5 25 0 23 -4 25 -40 25 l-40 0 0 -170z"/>
</g>
</svg>