<svg id="Primer_plano" data-name="Primer plano" xmlns="http://www.w3.org/2000/svg" viewBox="0 0 113.75 114.33">
  <defs>
    <style>
      .cls-1 {
        fill: gray;
      }

      .cls-1, .cls-2, .cls-3, .cls-5 {
        fill-rule: evenodd;
      }

      .cls-2, .cls-3 {
        fill: none;
        stroke-miterlimit: 3.86;
      }

      .cls-2 {
        stroke: #231f20;
      }

      .cls-3 {
        stroke: gray;
      }

      .cls-4, .cls-5 {
        fill: #fff;
      }
    </style>
  </defs>
  <g>
    <g>
      <path class="cls-1" d="M.5,14.5C.5,4.43,4.33.5,14.33.5H99.25c9.71,0,14,4.59,14,14v87c0,7.82-4.89,12.33-14,12.33h0c14.19,0-42.38,0-42.38,0H14.33C5.27,113.83.71,109.19.5,101.5h0v-87Z"/>
      <path class="cls-2" d="M.5,14.5C.5,4.43,4.33.5,14.33.5H99.25c9.71,0,14,4.59,14,14v87c0,7.82-4.89,12.33-14,12.33h0c14.19,0-42.38,0-42.38,0H14.33C5.27,113.83.71,109.19.5,101.5h0v-87Z"/>
      <path class="cls-3" d="M.5,14.5C.5,4.43,4.33.5,14.33.5H99.25c9.71,0,14,4.59,14,14v87c0,7.82-4.89,12.33-14,12.33h0c14.19,0-42.38,0-42.38,0H14.33C5.27,113.83.71,109.19.5,101.5h0v-87Z"/>
    </g>
    <g>
      <path class="cls-4" d="M19.07,14.5a3.39,3.39,0,0,1-1.78.45A3,3,0,0,1,15.05,14a3.26,3.26,0,0,1-.86-2.34,3.62,3.62,0,0,1,.92-2.58,3.25,3.25,0,0,1,2.46-1,3.42,3.42,0,0,1,1.51.32V9.53A2.64,2.64,0,0,0,17.53,9a2.1,2.1,0,0,0-1.63.71,2.7,2.7,0,0,0-.64,1.88,2.58,2.58,0,0,0,.6,1.8,2.07,2.07,0,0,0,1.61.66,2.64,2.64,0,0,0,1.6-.56Z"/>
      <path class="cls-4" d="M23.42,15a3,3,0,0,1-2.3-.91,3.37,3.37,0,0,1-.87-2.42,3.52,3.52,0,0,1,.9-2.56,3.23,3.23,0,0,1,2.42-.92,2.92,2.92,0,0,1,2.27.9,3.54,3.54,0,0,1,.81,2.48A3.46,3.46,0,0,1,25.77,14,3.08,3.08,0,0,1,23.42,15ZM23.49,9a2,2,0,0,0-1.58.68,2.79,2.79,0,0,0-.59,1.88,2.66,2.66,0,0,0,.59,1.82,2,2,0,0,0,1.58.67A1.92,1.92,0,0,0,25,13.42a2.81,2.81,0,0,0,.55-1.86A2.83,2.83,0,0,0,25,9.68,1.89,1.89,0,0,0,23.49,9Z"/>
      <path class="cls-4" d="M33.77,14.79h-1v-3.7c0-1.38-.51-2.07-1.51-2.07a1.67,1.67,0,0,0-1.3.58,2.21,2.21,0,0,0-.51,1.49v3.7h-1V8.29h1V9.37h0a2.34,2.34,0,0,1,2.13-1.23,2,2,0,0,1,1.63.69,3,3,0,0,1,.57,2Z"/>
      <path class="cls-4" d="M35.39,14.56V13.44a3.08,3.08,0,0,0,1.87.63c.92,0,1.38-.3,1.38-.91a.82.82,0,0,0-.12-.45,1.39,1.39,0,0,0-.32-.32,2.92,2.92,0,0,0-.47-.25l-.58-.23a8.06,8.06,0,0,1-.76-.34,2.11,2.11,0,0,1-.54-.4,1.29,1.29,0,0,1-.33-.5A1.6,1.6,0,0,1,35.4,10a1.58,1.58,0,0,1,.21-.81,2,2,0,0,1,.56-.59,2.65,2.65,0,0,1,.8-.36,3.57,3.57,0,0,1,.92-.12,3.77,3.77,0,0,1,1.51.29V9.49A2.9,2.9,0,0,0,37.75,9a2.06,2.06,0,0,0-.52.06,1.55,1.55,0,0,0-.41.19.89.89,0,0,0-.26.29.78.78,0,0,0-.09.37.81.81,0,0,0,.36.73,1.94,1.94,0,0,0,.43.24l.58.24a7.27,7.27,0,0,1,.78.34,2.45,2.45,0,0,1,.58.39,1.67,1.67,0,0,1,.37.51,1.54,1.54,0,0,1,.13.67,1.59,1.59,0,0,1-.21.84,1.69,1.69,0,0,1-.57.59,2.42,2.42,0,0,1-.82.35,3.85,3.85,0,0,1-1,.12A3.66,3.66,0,0,1,35.39,14.56Z"/>
      <path class="cls-4" d="M44.37,14.73a1.94,1.94,0,0,1-1,.2c-1.14,0-1.71-.63-1.71-1.9V9.18H40.58V8.29h1.11V6.71l1.05-.34V8.29h1.63v.89H42.74v3.67a1.52,1.52,0,0,0,.22.93.9.9,0,0,0,.73.28,1,1,0,0,0,.68-.22Z"/>
      <path class="cls-4" d="M49.21,9.35a1.28,1.28,0,0,0-.79-.21,1.33,1.33,0,0,0-1.11.63,2.89,2.89,0,0,0-.45,1.71v3.31h-1V8.29h1V9.63h0a2.29,2.29,0,0,1,.67-1.07,1.6,1.6,0,0,1,1-.38,1.66,1.66,0,0,1,.62.09Z"/>
      <path class="cls-4" d="M55.65,14.79h-1v-1h0a2.14,2.14,0,0,1-2,1.18C51,15,50.26,14,50.26,12.18V8.29h1V12c0,1.37.53,2.06,1.58,2.06a1.61,1.61,0,0,0,1.25-.56A2.16,2.16,0,0,0,54.61,12V8.29h1Z"/>
      <path class="cls-4" d="M62.24,14.5a3.39,3.39,0,0,1-1.78.45A3,3,0,0,1,58.22,14a3.26,3.26,0,0,1-.86-2.34,3.62,3.62,0,0,1,.92-2.58,3.25,3.25,0,0,1,2.46-1,3.42,3.42,0,0,1,1.51.32V9.53A2.64,2.64,0,0,0,60.7,9a2.1,2.1,0,0,0-1.63.71,2.7,2.7,0,0,0-.64,1.88,2.58,2.58,0,0,0,.6,1.8,2.07,2.07,0,0,0,1.61.66,2.64,2.64,0,0,0,1.6-.56Z"/>
      <path class="cls-4" d="M68.3,14.5a3.39,3.39,0,0,1-1.78.45A3,3,0,0,1,64.28,14a3.26,3.26,0,0,1-.86-2.34,3.62,3.62,0,0,1,.92-2.58,3.25,3.25,0,0,1,2.46-1,3.42,3.42,0,0,1,1.51.32V9.53A2.64,2.64,0,0,0,66.76,9a2.1,2.1,0,0,0-1.63.71,2.7,2.7,0,0,0-.64,1.88,2.58,2.58,0,0,0,.6,1.8,2.07,2.07,0,0,0,1.61.66,2.64,2.64,0,0,0,1.6-.56Z"/>
      <path class="cls-4" d="M70.46,6.64A.64.64,0,0,1,70,6.45a.63.63,0,0,1-.2-.48.64.64,0,0,1,.2-.48.65.65,0,0,1,.47-.2.68.68,0,0,1,.49.2.64.64,0,0,1,.2.48.66.66,0,0,1-.2.48A.67.67,0,0,1,70.46,6.64ZM71,14.79h-1V8.29h1Z"/>
      <path class="cls-4" d="M75.85,15a3,3,0,0,1-2.3-.91,3.41,3.41,0,0,1-.86-2.42,3.52,3.52,0,0,1,.9-2.56A3.21,3.21,0,0,1,76,8.14a2.9,2.9,0,0,1,2.27.9,3.5,3.5,0,0,1,.82,2.48A3.46,3.46,0,0,1,78.21,14,3.1,3.1,0,0,1,75.85,15ZM75.93,9a2,2,0,0,0-1.59.68,2.78,2.78,0,0,0-.58,1.88,2.66,2.66,0,0,0,.59,1.82,2,2,0,0,0,1.58.67,1.92,1.92,0,0,0,1.55-.65A2.86,2.86,0,0,0,78,11.56a2.89,2.89,0,0,0-.54-1.88A1.89,1.89,0,0,0,75.93,9Z"/>
      <path class="cls-4" d="M86.2,14.79h-1v-3.7c0-1.38-.5-2.07-1.51-2.07a1.63,1.63,0,0,0-1.29.58,2.21,2.21,0,0,0-.51,1.49v3.7h-1V8.29h1V9.37h0A2.37,2.37,0,0,1,84,8.14a2,2,0,0,1,1.63.69,3,3,0,0,1,.56,2Z"/>
      <path class="cls-4" d="M93.45,11.8H88.86a2.4,2.4,0,0,0,.58,1.68,2,2,0,0,0,1.54.59,3.22,3.22,0,0,0,2-.72v1a3.77,3.77,0,0,1-2.27.63,2.73,2.73,0,0,1-2.16-.89,3.6,3.6,0,0,1-.79-2.49,3.55,3.55,0,0,1,.86-2.47,2.74,2.74,0,0,1,2.13-1,2.47,2.47,0,0,1,2,.83,3.46,3.46,0,0,1,.7,2.29Zm-1.07-.88A2.11,2.11,0,0,0,92,9.52a1.49,1.49,0,0,0-1.2-.5,1.69,1.69,0,0,0-1.25.52,2.43,2.43,0,0,0-.63,1.38Z"/>
      <path class="cls-4" d="M94.68,14.56V13.44a3.11,3.11,0,0,0,1.88.63c.91,0,1.37-.3,1.37-.91a.82.82,0,0,0-.12-.45,1.21,1.21,0,0,0-.32-.32,2.92,2.92,0,0,0-.47-.25l-.58-.23c-.28-.11-.54-.23-.76-.34a2.3,2.3,0,0,1-.54-.4,1.29,1.29,0,0,1-.33-.5A1.61,1.61,0,0,1,94.7,10a1.58,1.58,0,0,1,.21-.81,1.85,1.85,0,0,1,.56-.59,2.48,2.48,0,0,1,.79-.36,3.59,3.59,0,0,1,.93-.12,3.84,3.84,0,0,1,1.51.29V9.49A2.9,2.9,0,0,0,97.05,9a2.15,2.15,0,0,0-.53.06,1.35,1.35,0,0,0-.4.19.79.79,0,0,0-.26.29.69.69,0,0,0-.1.37.83.83,0,0,0,.1.43,1,1,0,0,0,.27.3,1.73,1.73,0,0,0,.43.24l.57.24a7.27,7.27,0,0,1,.78.34,2.26,2.26,0,0,1,.58.39,1.52,1.52,0,0,1,.37.51,1.54,1.54,0,0,1,.14.67,1.59,1.59,0,0,1-.22.84,1.69,1.69,0,0,1-.57.59,2.37,2.37,0,0,1-.81.35,3.93,3.93,0,0,1-1,.12A3.69,3.69,0,0,1,94.68,14.56Z"/>
    </g>
    <g>
      <path class="cls-4" d="M23.12,108.79h-1v-3.73a2.82,2.82,0,0,0-.34-1.56,1.26,1.26,0,0,0-1.12-.48,1.38,1.38,0,0,0-1.13.61,2.32,2.32,0,0,0-.47,1.46v3.7H18v-3.86c0-1.27-.49-1.91-1.48-1.91a1.39,1.39,0,0,0-1.13.57,2.43,2.43,0,0,0-.44,1.5v3.7h-1v-6.5h1v1h0a2.23,2.23,0,0,1,2-1.18,1.91,1.91,0,0,1,1.16.37,1.89,1.89,0,0,1,.68,1A2.34,2.34,0,0,1,21,102.14c1.43,0,2.15.88,2.15,2.65Z"/>
      <path class="cls-4" d="M31.39,109a3,3,0,0,1-2.3-.91,3.41,3.41,0,0,1-.86-2.42,3.56,3.56,0,0,1,.89-2.56,3.25,3.25,0,0,1,2.42-.92,2.9,2.9,0,0,1,2.27.9,3.5,3.5,0,0,1,.82,2.48,3.46,3.46,0,0,1-.88,2.49A3.1,3.1,0,0,1,31.39,109Zm.08-5.93a2,2,0,0,0-1.59.68,2.78,2.78,0,0,0-.58,1.88,2.61,2.61,0,0,0,.59,1.82,2,2,0,0,0,1.58.67,1.92,1.92,0,0,0,1.55-.65,3.51,3.51,0,0,0,0-3.74A1.89,1.89,0,0,0,31.47,103Z"/>
      <path class="cls-4" d="M45.43,108.79h-1v-1.1h0a2.61,2.61,0,0,1-4.19.38,3.55,3.55,0,0,1-.73-2.37,3.92,3.92,0,0,1,.81-2.59,2.69,2.69,0,0,1,2.16-1,2.06,2.06,0,0,1,2,1.06h0v-4h1Zm-1-2.94v-.95a1.91,1.91,0,0,0-.52-1.34,1.92,1.92,0,0,0-2.82.16,3.06,3.06,0,0,0-.55,1.93,2.75,2.75,0,0,0,.53,1.77,1.72,1.72,0,0,0,1.4.65,1.8,1.8,0,0,0,1.42-.63A2.36,2.36,0,0,0,44.39,105.85Z"/>
      <path class="cls-4" d="M56.38,108.79h-1v-1h0a2.16,2.16,0,0,1-2,1.18C51.76,109,51,108,51,106.18v-3.89h1V106c0,1.37.53,2.06,1.58,2.06a1.61,1.61,0,0,0,1.25-.56,2.16,2.16,0,0,0,.49-1.47v-3.75h1Z"/>
      <path class="cls-4" d="M63.11,108.79h-1V99.17h1Z"/>
      <path class="cls-4" d="M73.46,108.79h-1v-1h0a2.18,2.18,0,0,1-2,1.17,2.14,2.14,0,0,1-1.52-.52,1.76,1.76,0,0,1-.55-1.36c0-1.22.71-1.92,2.14-2.12l2-.28c0-1.1-.44-1.65-1.34-1.65a3.17,3.17,0,0,0-2.12.8v-1.07a4,4,0,0,1,2.21-.61c1.53,0,2.29.81,2.29,2.43Zm-1-3.28-1.56.21a2.62,2.62,0,0,0-1.1.36,1,1,0,0,0-.36.91,1,1,0,0,0,.34.78,1.29,1.29,0,0,0,.9.3,1.68,1.68,0,0,0,1.28-.54,2,2,0,0,0,.5-1.38Z"/>
      <path class="cls-4" d="M82.41,103.35a1.3,1.3,0,0,0-.79-.21,1.33,1.33,0,0,0-1.12.63,3,3,0,0,0-.44,1.71v3.31H79v-6.5h1v1.34h0a2.38,2.38,0,0,1,.68-1.07,1.59,1.59,0,0,1,1-.38,1.75,1.75,0,0,1,.63.09Z"/>
      <path class="cls-4" d="M92.22,105.8H87.63a2.45,2.45,0,0,0,.58,1.68,2,2,0,0,0,1.54.59,3.2,3.2,0,0,0,2-.72v1a3.75,3.75,0,0,1-2.27.63,2.73,2.73,0,0,1-2.16-.89,3.6,3.6,0,0,1-.79-2.49,3.55,3.55,0,0,1,.86-2.47,2.76,2.76,0,0,1,2.14-1,2.43,2.43,0,0,1,2,.83,3.41,3.41,0,0,1,.7,2.29Zm-1.07-.88a2.11,2.11,0,0,0-.43-1.4,1.47,1.47,0,0,0-1.19-.5,1.68,1.68,0,0,0-1.25.52,2.37,2.37,0,0,0-.64,1.38Z"/>
      <path class="cls-4" d="M97,108.56v-1.12a3.08,3.08,0,0,0,1.87.63c.92,0,1.37-.3,1.37-.91a.91.91,0,0,0-.11-.45,1.39,1.39,0,0,0-.32-.32,2.92,2.92,0,0,0-.47-.25l-.58-.23a8.06,8.06,0,0,1-.76-.34,2.36,2.36,0,0,1-.55-.4,1.56,1.56,0,0,1-.33-.5A1.8,1.8,0,0,1,97,104a1.58,1.58,0,0,1,.21-.81,2,2,0,0,1,.56-.59,2.54,2.54,0,0,1,.8-.36,3.52,3.52,0,0,1,.92-.12,3.8,3.8,0,0,1,1.51.29v1.06a2.9,2.9,0,0,0-1.65-.47,2.2,2.2,0,0,0-.53.06,1.48,1.48,0,0,0-.4.19.89.89,0,0,0-.26.29.78.78,0,0,0-.09.37.81.81,0,0,0,.36.73,1.94,1.94,0,0,0,.43.24l.58.24a6.3,6.3,0,0,1,.77.34,2.33,2.33,0,0,1,.59.39,1.67,1.67,0,0,1,.37.51,1.54,1.54,0,0,1,.13.67,1.59,1.59,0,0,1-.21.84,1.69,1.69,0,0,1-.57.59,2.42,2.42,0,0,1-.82.35,3.85,3.85,0,0,1-1,.12A3.66,3.66,0,0,1,97,108.56Z"/>
    </g>
    <path class="cls-5" d="M36,63.65l7.74,1.08q-1.28,8-6.52,12.5a19,19,0,0,1-12.87,4.51q-9.57,0-15.38-6.25T3.13,57.57a32.52,32.52,0,0,1,2.5-13.2,17.44,17.44,0,0,1,7.62-8.49,22.58,22.58,0,0,1,11.13-2.83q7.61,0,12.43,3.84A17.68,17.68,0,0,1,43,47.81L35.35,49a12.78,12.78,0,0,0-3.89-7.08,10.12,10.12,0,0,0-6.76-2.37A12.34,12.34,0,0,0,15,43.81q-3.74,4.27-3.74,13.54T14.84,71a11.73,11.73,0,0,0,9.4,4.26A11.09,11.09,0,0,0,32,72.41C34.11,70.51,35.42,67.59,36,63.65Z"/>
    <path class="cls-5" d="M46.71,80.75V34h7.11v6.6a16.7,16.7,0,0,1,5.84-5.51A16.38,16.38,0,0,1,68,33.05a15.38,15.38,0,0,1,8.5,2.15,11.42,11.42,0,0,1,4.67,6q5.56-8.16,14.48-8.16,7,0,10.72,3.84t3.75,11.84v32h-7.92V51.36a21.37,21.37,0,0,0-.77-6.83,6.6,6.6,0,0,0-2.8-3.37,8.75,8.75,0,0,0-4.76-1.27,11.1,11.1,0,0,0-8.2,3.27q-3.27,3.29-3.27,10.48V80.75H74.43V50.43c0-3.51-.64-6.15-1.93-7.9s-3.39-2.64-6.32-2.64A11.52,11.52,0,0,0,60,41.65a9.93,9.93,0,0,0-4.1,5.14,28.84,28.84,0,0,0-1.28,9.75V80.75Z"/>
  </g>
</svg>
