<svg id="Primer_plano" data-name="Primer plano" xmlns="http://www.w3.org/2000/svg" viewBox="0 0 135.88 152.05">
  <defs>
    <style>
      .cls-1 {
        fill: #ff8000;
      }

      .cls-2 {
        fill: #fff;
        stroke: #fff;
        stroke-miterlimit: 3.86;
        fill-rule: evenodd;
      }
    </style>
  </defs>
  <circle class="cls-1" cx="57.75" cy="56.75" r="56.75"/>
  <path class="cls-2" d="M103.1,68.5,114.38,70q-2.66,9.91-9.84,15.4T86.18,90.88q-14.07,0-22.31-8.75T55.62,57.61q0-16.32,8.34-25.34t21.62-9q12.87,0,21,8.84T114.75,57c0,.65,0,1.63-.06,2.93H66.78q.6,10.65,6,16.33a17.74,17.74,0,0,0,13.42,5.67,16.45,16.45,0,0,0,10.21-3.2Q100.62,75.5,103.1,68.5ZM67.4,50.88h35.82q-.72-8.19-4.11-12.28a16.59,16.59,0,0,0-13.47-6.35,17.16,17.16,0,0,0-12.59,5.07Q68,42.39,67.4,50.88Z"/>
  <g>
    <path class="cls-1" d="M9.56,130.4H8V129H8a3.25,3.25,0,0,1-2.92,1.62,3.22,3.22,0,0,1-2.21-.71,2.4,2.4,0,0,1-.8-1.89c0-1.69,1-2.66,3.12-2.94L8,124.7c0-1.53-.65-2.3-1.95-2.29A4.79,4.79,0,0,0,3,123.52V122a6.11,6.11,0,0,1,3.21-.85c2.23,0,3.34,1.12,3.35,3.36ZM8,125.85l-2.28.3a3.67,3.67,0,0,0-1.59.5,1.4,1.4,0,0,0-.54,1.26,1.33,1.33,0,0,0,.5,1.08,2,2,0,0,0,1.31.41,2.5,2.5,0,0,0,1.87-.75,2.61,2.61,0,0,0,.73-1.9Z"/>
    <path class="cls-1" d="M24.81,130.39H23.29v-5.13c0-1.91-.74-2.87-2.21-2.87a2.45,2.45,0,0,0-1.88.82,2.89,2.89,0,0,0-.74,2.05v5.13H16.94v-9h1.51v1.5h0a3.46,3.46,0,0,1,3.11-1.71,3,3,0,0,1,2.38.95,4.1,4.1,0,0,1,.82,2.76Z"/>
    <path class="cls-1" d="M40.38,130.37H38.86v-1.53h0a3.55,3.55,0,0,1-3.26,1.74,3.6,3.6,0,0,1-2.85-1.21,4.74,4.74,0,0,1-1.07-3.29,5.17,5.17,0,0,1,1.18-3.58A4,4,0,0,1,36,121.17a3.07,3.07,0,0,1,2.84,1.45h0v-5.57h1.52Zm-1.52-4.06V125a2.51,2.51,0,0,0-.76-1.85,2.63,2.63,0,0,0-1.92-.75,2.67,2.67,0,0,0-2.19,1A4.07,4.07,0,0,0,33.2,126a3.73,3.73,0,0,0,.76,2.46,2.57,2.57,0,0,0,2.06.9,2.64,2.64,0,0,0,2-.88A3.12,3.12,0,0,0,38.86,126.31Z"/>
    <path class="cls-1" d="M54.71,130.36H53.2V129h0a3.57,3.57,0,0,1-5.13.91,2.43,2.43,0,0,1-.8-1.89q0-2.52,3.12-2.94l2.84-.38c0-1.53-.65-2.29-1.95-2.29a4.81,4.81,0,0,0-3.09,1.11V122a6.21,6.21,0,0,1,3.22-.85c2.22,0,3.34,1.12,3.34,3.36Zm-1.52-4.55-2.28.3a3.91,3.91,0,0,0-1.59.5,1.4,1.4,0,0,0-.54,1.26,1.36,1.36,0,0,0,.5,1.08,2,2,0,0,0,1.32.41,2.49,2.49,0,0,0,1.86-.75,2.57,2.57,0,0,0,.73-1.9Z"/>
    <path class="cls-1" d="M75.55,130.34H74v-5.17a3.74,3.74,0,0,0-.49-2.16,1.87,1.87,0,0,0-1.63-.67,2,2,0,0,0-1.65.84,3.11,3.11,0,0,0-.68,2v5.13H68.06V125c0-1.77-.72-2.66-2.16-2.66a2,2,0,0,0-1.64.8,3.13,3.13,0,0,0-.65,2.07v5.13H62.1v-9h1.52v1.43h0a3.25,3.25,0,0,1,2.94-1.64,2.86,2.86,0,0,1,1.69.51,2.66,2.66,0,0,1,1,1.35,3.4,3.4,0,0,1,3.14-1.86q3.14,0,3.13,3.66Z"/>
    <path class="cls-1" d="M83.69,119.05a1,1,0,0,1-.69-.26.85.85,0,0,1-.29-.67.88.88,0,0,1,.28-.67,1,1,0,0,1,.7-.27,1,1,0,0,1,.71.27.91.91,0,0,1,0,1.33A1,1,0,0,1,83.69,119.05Zm.75,11.29H82.92v-9h1.52Z"/>
    <path class="cls-1" d="M96,130.54a4.33,4.33,0,0,1-4.62-4.6,4.73,4.73,0,0,1,1.31-3.55,4.8,4.8,0,0,1,3.52-1.27,4.37,4.37,0,0,1,3.31,1.23,4.78,4.78,0,0,1,1.19,3.44,4.73,4.73,0,0,1-1.28,3.45A4.62,4.62,0,0,1,96,130.54Zm.1-8.21a2.94,2.94,0,0,0-2.31,1,3.72,3.72,0,0,0-.85,2.6,3.55,3.55,0,0,0,.86,2.52,2.94,2.94,0,0,0,2.31.92,2.85,2.85,0,0,0,2.26-.9,3.84,3.84,0,0,0,.79-2.58,3.9,3.9,0,0,0-.8-2.6A2.83,2.83,0,0,0,96.08,122.33Z"/>
    <path class="cls-1" d="M107.05,130v-1.54a4.68,4.68,0,0,0,2.73.86c1.33,0,2-.42,2-1.26a1,1,0,0,0-.17-.61,1.65,1.65,0,0,0-.46-.45,3.41,3.41,0,0,0-.69-.34l-.84-.33a10,10,0,0,1-1.11-.47,3.24,3.24,0,0,1-.79-.55,1.94,1.94,0,0,1-.49-.69,2.45,2.45,0,0,1-.16-.9,2,2,0,0,1,.31-1.12,2.54,2.54,0,0,1,.81-.82,3.81,3.81,0,0,1,1.16-.5,5.43,5.43,0,0,1,1.35-.17,5.68,5.68,0,0,1,2.2.41V123a4.5,4.5,0,0,0-2.41-.64,2.93,2.93,0,0,0-.76.09,1.88,1.88,0,0,0-.59.26,1.11,1.11,0,0,0-.38.4.9.9,0,0,0-.13.51,1.17,1.17,0,0,0,.13.59,1.29,1.29,0,0,0,.39.42,3.12,3.12,0,0,0,.63.34l.85.32c.41.15.79.31,1.12.47a3.63,3.63,0,0,1,.86.55,2.23,2.23,0,0,1,.54.69,2.28,2.28,0,0,1,.19.94,2.07,2.07,0,0,1-.31,1.16,2.5,2.5,0,0,1-.83.82,3.87,3.87,0,0,1-1.19.49,6.5,6.5,0,0,1-1.42.16A5.55,5.55,0,0,1,107.05,130Z"/>
  </g>
  <path class="cls-2" d="M46.62,81.52a40.93,40.93,0,0,1-11.78,7.36A34,34,0,0,1,22.7,91Q12,91,6.25,85.82A17.17,17.17,0,0,1,.5,72.51a17.6,17.6,0,0,1,2.17-8.67,17.85,17.85,0,0,1,5.69-6.3,26.49,26.49,0,0,1,7.92-3.6,81.16,81.16,0,0,1,9.78-1.64q13.34-1.59,19.63-3.78c0-1.5.06-2.45.06-2.86q0-6.69-3.12-9.43-4.23-3.7-12.55-3.71-7.77,0-11.48,2.73T13.12,44.9L2.38,43.4A26.55,26.55,0,0,1,7.21,32.24,21.19,21.19,0,0,1,17,25.69,43.46,43.46,0,0,1,31.71,23.4q8.32,0,13.53,2a17.73,17.73,0,0,1,7.65,4.92,17.23,17.23,0,0,1,3.43,7.49,61,61,0,0,1,.56,10.11V62.47q0,15.25.68,19.34a25.16,25.16,0,0,0,2.69,7.84H48.75A24.84,24.84,0,0,1,46.62,81.52Zm-.87-24.37q-6,2.43-18,4.13a41.58,41.58,0,0,0-9.61,2.18A9.61,9.61,0,0,0,13.78,67a9.61,9.61,0,0,0,1.8,12.48q3.33,2.91,9.75,2.91a22.83,22.83,0,0,0,11.31-2.76,17.07,17.07,0,0,0,7.28-7.56q1.77-3.7,1.77-10.93Z"/>
  <g>
    <path class="cls-1" d="M10.55,143.64H4.19A3.42,3.42,0,0,0,5,146a2.82,2.82,0,0,0,2.13.82,4.46,4.46,0,0,0,2.79-1v1.35a5.23,5.23,0,0,1-3.13.86,3.78,3.78,0,0,1-3-1.23,5,5,0,0,1-1.09-3.45,4.88,4.88,0,0,1,1.19-3.42,3.82,3.82,0,0,1,3-1.32,3.38,3.38,0,0,1,2.73,1.14,4.78,4.78,0,0,1,1,3.17Zm-1.48-1.22a3,3,0,0,0-.6-1.94,2,2,0,0,0-1.65-.7,2.3,2.3,0,0,0-1.73.73,3.27,3.27,0,0,0-.88,1.91Z"/>
    <path class="cls-1" d="M31.43,147.78H30v-1.42h0A3,3,0,0,1,27.17,148Q24,148,24,144.16v-5.38h1.43v5.15c0,1.9.72,2.85,2.18,2.85A2.19,2.19,0,0,0,29.3,146a3,3,0,0,0,.68-2v-5.18h1.45Z"/>
    <path class="cls-1" d="M50.45,140.24a1.73,1.73,0,0,0-1.09-.29,1.84,1.84,0,0,0-1.54.87,4,4,0,0,0-.62,2.37v4.59H45.76v-9H47.2v1.85h0a3.23,3.23,0,0,1,.94-1.48,2.2,2.2,0,0,1,1.42-.53,2.42,2.42,0,0,1,.86.12Z"/>
    <path class="cls-1" d="M67,148a4.19,4.19,0,0,1-3.19-1.26,4.7,4.7,0,0,1-1.19-3.35,4.85,4.85,0,0,1,1.24-3.54,4.45,4.45,0,0,1,3.35-1.27,4,4,0,0,1,3.14,1.24,4.91,4.91,0,0,1,1.13,3.43,4.83,4.83,0,0,1-1.22,3.45A4.24,4.24,0,0,1,67,148Zm.1-8.21a2.74,2.74,0,0,0-2.19.95,3.85,3.85,0,0,0-.81,2.6,3.62,3.62,0,0,0,.82,2.52,2.75,2.75,0,0,0,2.18.93,2.61,2.61,0,0,0,2.15-.91A3.92,3.92,0,0,0,70,143.3a4,4,0,0,0-.75-2.6A2.62,2.62,0,0,0,67.12,139.78Z"/>
    <path class="cls-1" d="M86.7,146.48h0v5.44H85.23V138.78h1.44v1.58h0a3.42,3.42,0,0,1,3.11-1.79,3.29,3.29,0,0,1,2.72,1.21,5,5,0,0,1,1,3.24,5.57,5.57,0,0,1-1.09,3.61,3.67,3.67,0,0,1-3,1.36A3,3,0,0,1,86.7,146.48Zm0-3.63v1.26a2.69,2.69,0,0,0,.72,1.89,2.42,2.42,0,0,0,1.84.78,2.44,2.44,0,0,0,2.06-1A4.65,4.65,0,0,0,92,143a3.61,3.61,0,0,0-.7-2.36,2.32,2.32,0,0,0-1.88-.85,2.54,2.54,0,0,0-2,.88A3.19,3.19,0,0,0,86.67,142.85Z"/>
    <path class="cls-1" d="M113.49,147.78h-1.44v-1.41h0a3.29,3.29,0,0,1-4.88.91,2.47,2.47,0,0,1-.76-1.89q0-2.52,3-2.94l2.7-.37c0-1.53-.62-2.3-1.85-2.3a4.42,4.42,0,0,0-2.94,1.11v-1.48a5.62,5.62,0,0,1,3.06-.84q3.17,0,3.17,3.36Zm-1.44-4.55-2.17.3a3.43,3.43,0,0,0-1.51.49,1.44,1.44,0,0,0-.51,1.26,1.36,1.36,0,0,0,.47,1.08,1.8,1.8,0,0,0,1.25.42,2.3,2.3,0,0,0,1.77-.75,2.7,2.7,0,0,0,.7-1.91Z"/>
  </g>
</svg>
