<svg id="Primer_plano" data-name="Primer plano" xmlns="http://www.w3.org/2000/svg" viewBox="0 0 113.75 114.33">
  <defs>
    <style>
      .cls-1 {
        fill: #231f20;
      }

      .cls-1, .cls-2, .cls-4 {
        fill-rule: evenodd;
      }

      .cls-2 {
        fill: none;
        stroke: #231f20;
        stroke-miterlimit: 3.86;
      }

      .cls-3, .cls-4 {
        fill: #fff;
      }
    </style>
  </defs>
  <g>
    <path class="cls-1" d="M.5,14.5C.5,4.43,4.33.5,14.33.5H99.25c9.71,0,14,4.59,14,14v87c0,7.82-4.89,12.33-14,12.33h0c14.19,0-42.38,0-42.38,0H14.33C5.27,113.83.71,109.19.5,101.5h0v-87Z"/>
    <path class="cls-1" d="M.5,14.5C.5,4.43,4.33.5,14.33.5H99.25c9.71,0,14,4.59,14,14v87c0,7.82-4.89,12.33-14,12.33h0c14.19,0-42.38,0-42.38,0H14.33C5.27,113.83.71,109.19.5,101.5h0v-87Z"/>
    <path class="cls-2" d="M.5,14.5C.5,4.43,4.33.5,14.33.5H99.25c9.71,0,14,4.59,14,14v87c0,7.82-4.89,12.33-14,12.33h0c14.19,0-42.38,0-42.38,0H14.33C5.27,113.83.71,109.19.5,101.5h0v-87Z"/>
  </g>
  <g>
    <path class="cls-3" d="M20,14.88H19v-1h0A2.18,2.18,0,0,1,17,15a2.17,2.17,0,0,1-1.52-.51,1.82,1.82,0,0,1-.55-1.37c0-1.21.72-1.92,2.15-2.12L19,10.76c0-1.11-.45-1.66-1.34-1.66a3.22,3.22,0,0,0-2.12.8V8.84a4,4,0,0,1,2.21-.61c1.53,0,2.29.8,2.29,2.42Zm-1-3.29-1.57.22a2.45,2.45,0,0,0-1.09.35,1,1,0,0,0-.37.92,1,1,0,0,0,.34.77,1.32,1.32,0,0,0,.9.3,1.66,1.66,0,0,0,1.28-.54A1.92,1.92,0,0,0,19,12.24Z"/>
    <path class="cls-3" d="M27,9.43a1.25,1.25,0,0,0-.78-.21,1.33,1.33,0,0,0-1.12.63,2.89,2.89,0,0,0-.45,1.71v3.32h-1V8.38h1V9.72h0a2.2,2.2,0,0,1,.68-1.07,1.52,1.52,0,0,1,1-.39,1.66,1.66,0,0,1,.62.09Z"/>
    <path class="cls-3" d="M35.24,17.87h-1V13.76h0A2.34,2.34,0,0,1,32,15a2.45,2.45,0,0,1-2-.87,3.59,3.59,0,0,1-.74-2.38,3.92,3.92,0,0,1,.81-2.59,2.73,2.73,0,0,1,2.19-1,2.05,2.05,0,0,1,1.93,1h0v-.9h1ZM34.2,12V11a1.9,1.9,0,0,0-.52-1.36,1.91,1.91,0,0,0-2.82.15,3.11,3.11,0,0,0-.54,2,2.71,2.71,0,0,0,.52,1.76,1.71,1.71,0,0,0,1.36.63,1.82,1.82,0,0,0,1.46-.62A2.33,2.33,0,0,0,34.2,12Z"/>
    <path class="cls-3" d="M44.26,14.88h-1v-1h0a2.13,2.13,0,0,1-2,1.18c-1.55,0-2.33-.92-2.33-2.77V8.38h1V12.1c0,1.37.52,2.05,1.57,2.05a1.59,1.59,0,0,0,1.26-.56,2.17,2.17,0,0,0,.49-1.47V8.38h1Z"/>
    <path class="cls-3" d="M48.55,6.73a.69.69,0,0,1-.48-.19.69.69,0,0,1,0-1,.7.7,0,0,1,1,0,.63.63,0,0,1,.2.49.61.61,0,0,1-.2.47A.66.66,0,0,1,48.55,6.73Zm.5,8.15H48V8.38h1Z"/>
    <path class="cls-3" d="M55.83,14.81a2,2,0,0,1-1,.21c-1.14,0-1.71-.64-1.71-1.91V9.27H52V8.38h1.12V6.79l1-.33V8.38h1.64v.89H54.19v3.66a1.48,1.48,0,0,0,.22.93.89.89,0,0,0,.74.28,1.12,1.12,0,0,0,.68-.21Z"/>
    <path class="cls-3" d="M64,11.89H59.43A2.39,2.39,0,0,0,60,13.56a2,2,0,0,0,1.54.59,3.22,3.22,0,0,0,2-.72v1A3.81,3.81,0,0,1,61.3,15a2.73,2.73,0,0,1-2.16-.88,3.62,3.62,0,0,1-.79-2.5,3.57,3.57,0,0,1,.86-2.47,2.73,2.73,0,0,1,2.13-.95,2.45,2.45,0,0,1,2,.82,3.48,3.48,0,0,1,.7,2.29ZM63,11a2.16,2.16,0,0,0-.43-1.41,1.51,1.51,0,0,0-1.19-.5,1.67,1.67,0,0,0-1.25.53A2.34,2.34,0,0,0,59.44,11Z"/>
    <path class="cls-3" d="M71.67,14.58A3.38,3.38,0,0,1,69.9,15a3,3,0,0,1-2.25-.9,3.3,3.3,0,0,1-.85-2.35,3.62,3.62,0,0,1,.92-2.58,3.21,3.21,0,0,1,2.46-1,3.45,3.45,0,0,1,1.51.31V9.61a2.66,2.66,0,0,0-1.55-.51,2.1,2.1,0,0,0-1.64.72,2.71,2.71,0,0,0-.63,1.87,2.62,2.62,0,0,0,.59,1.8,2.09,2.09,0,0,0,1.61.66,2.58,2.58,0,0,0,1.6-.56Z"/>
    <path class="cls-3" d="M77.92,14.81a2,2,0,0,1-1,.21c-1.13,0-1.7-.64-1.7-1.91V9.27H74.12V8.38h1.12V6.79l1-.33V8.38h1.64v.89H76.28v3.66a1.48,1.48,0,0,0,.22.93.88.88,0,0,0,.74.28,1.12,1.12,0,0,0,.68-.21Z"/>
    <path class="cls-3" d="M86.21,14.88h-1v-1h0a2.13,2.13,0,0,1-2,1.18c-1.55,0-2.32-.92-2.32-2.77V8.38h1V12.1c0,1.37.53,2.05,1.58,2.05a1.57,1.57,0,0,0,1.25-.56,2.12,2.12,0,0,0,.49-1.47V8.38h1Z"/>
    <path class="cls-3" d="M93.36,9.43a1.28,1.28,0,0,0-.79-.21,1.32,1.32,0,0,0-1.11.63A2.89,2.89,0,0,0,91,11.56v3.32H90V8.38h1V9.72h0a2.28,2.28,0,0,1,.68-1.07,1.56,1.56,0,0,1,1-.39,1.69,1.69,0,0,1,.62.09Z"/>
    <path class="cls-3" d="M100.79,14.88h-1v-1h0a2.19,2.19,0,0,1-2,1.17,2.13,2.13,0,0,1-1.52-.51,1.79,1.79,0,0,1-.55-1.37c0-1.21.71-1.92,2.14-2.12l2-.27c0-1.11-.44-1.66-1.34-1.66a3.22,3.22,0,0,0-2.12.8V8.84a4,4,0,0,1,2.21-.61c1.53,0,2.29.8,2.29,2.42Zm-1-3.29-1.57.22a2.49,2.49,0,0,0-1.09.35,1.07,1.07,0,0,0-.37.92,1,1,0,0,0,.34.77,1.33,1.33,0,0,0,.91.3,1.68,1.68,0,0,0,1.28-.54,2,2,0,0,0,.5-1.37Z"/>
  </g>
  <g>
    <path class="cls-3" d="M20,14.88H19v-1h0A2.18,2.18,0,0,1,17,15a2.17,2.17,0,0,1-1.52-.51,1.82,1.82,0,0,1-.55-1.37c0-1.21.72-1.92,2.15-2.12L19,10.76c0-1.11-.45-1.66-1.34-1.66a3.22,3.22,0,0,0-2.12.8V8.84a4,4,0,0,1,2.21-.61c1.53,0,2.29.8,2.29,2.42Zm-1-3.29-1.57.22a2.45,2.45,0,0,0-1.09.35,1,1,0,0,0-.37.92,1,1,0,0,0,.34.77,1.32,1.32,0,0,0,.9.3,1.66,1.66,0,0,0,1.28-.54A1.92,1.92,0,0,0,19,12.24Z"/>
    <path class="cls-3" d="M27,9.43a1.25,1.25,0,0,0-.78-.21,1.33,1.33,0,0,0-1.12.63,2.89,2.89,0,0,0-.45,1.71v3.32h-1V8.38h1V9.72h0a2.2,2.2,0,0,1,.68-1.07,1.52,1.52,0,0,1,1-.39,1.66,1.66,0,0,1,.62.09Z"/>
    <path class="cls-3" d="M35.24,17.87h-1V13.76h0A2.34,2.34,0,0,1,32,15a2.45,2.45,0,0,1-2-.87,3.59,3.59,0,0,1-.74-2.38,3.92,3.92,0,0,1,.81-2.59,2.73,2.73,0,0,1,2.19-1,2.05,2.05,0,0,1,1.93,1h0v-.9h1ZM34.2,12V11a1.9,1.9,0,0,0-.52-1.36,1.91,1.91,0,0,0-2.82.15,3.11,3.11,0,0,0-.54,2,2.71,2.71,0,0,0,.52,1.76,1.71,1.71,0,0,0,1.36.63,1.82,1.82,0,0,0,1.46-.62A2.33,2.33,0,0,0,34.2,12Z"/>
    <path class="cls-3" d="M44.26,14.88h-1v-1h0a2.13,2.13,0,0,1-2,1.18c-1.55,0-2.33-.92-2.33-2.77V8.38h1V12.1c0,1.37.52,2.05,1.57,2.05a1.59,1.59,0,0,0,1.26-.56,2.17,2.17,0,0,0,.49-1.47V8.38h1Z"/>
    <path class="cls-3" d="M48.55,6.73a.69.69,0,0,1-.48-.19.69.69,0,0,1,0-1,.7.7,0,0,1,1,0,.63.63,0,0,1,.2.49.61.61,0,0,1-.2.47A.66.66,0,0,1,48.55,6.73Zm.5,8.15H48V8.38h1Z"/>
    <path class="cls-3" d="M55.83,14.81a2,2,0,0,1-1,.21c-1.14,0-1.71-.64-1.71-1.91V9.27H52V8.38h1.12V6.79l1-.33V8.38h1.64v.89H54.19v3.66a1.48,1.48,0,0,0,.22.93.89.89,0,0,0,.74.28,1.12,1.12,0,0,0,.68-.21Z"/>
    <path class="cls-3" d="M64,11.89H59.43A2.39,2.39,0,0,0,60,13.56a2,2,0,0,0,1.54.59,3.22,3.22,0,0,0,2-.72v1A3.81,3.81,0,0,1,61.3,15a2.73,2.73,0,0,1-2.16-.88,3.62,3.62,0,0,1-.79-2.5,3.57,3.57,0,0,1,.86-2.47,2.73,2.73,0,0,1,2.13-.95,2.45,2.45,0,0,1,2,.82,3.48,3.48,0,0,1,.7,2.29ZM63,11a2.16,2.16,0,0,0-.43-1.41,1.51,1.51,0,0,0-1.19-.5,1.67,1.67,0,0,0-1.25.53A2.34,2.34,0,0,0,59.44,11Z"/>
    <path class="cls-3" d="M71.67,14.58A3.38,3.38,0,0,1,69.9,15a3,3,0,0,1-2.25-.9,3.3,3.3,0,0,1-.85-2.35,3.62,3.62,0,0,1,.92-2.58,3.21,3.21,0,0,1,2.46-1,3.45,3.45,0,0,1,1.51.31V9.61a2.66,2.66,0,0,0-1.55-.51,2.1,2.1,0,0,0-1.64.72,2.71,2.71,0,0,0-.63,1.87,2.62,2.62,0,0,0,.59,1.8,2.09,2.09,0,0,0,1.61.66,2.58,2.58,0,0,0,1.6-.56Z"/>
    <path class="cls-3" d="M77.92,14.81a2,2,0,0,1-1,.21c-1.13,0-1.7-.64-1.7-1.91V9.27H74.12V8.38h1.12V6.79l1-.33V8.38h1.64v.89H76.28v3.66a1.48,1.48,0,0,0,.22.93.88.88,0,0,0,.74.28,1.12,1.12,0,0,0,.68-.21Z"/>
    <path class="cls-3" d="M86.21,14.88h-1v-1h0a2.13,2.13,0,0,1-2,1.18c-1.55,0-2.32-.92-2.32-2.77V8.38h1V12.1c0,1.37.53,2.05,1.58,2.05a1.57,1.57,0,0,0,1.25-.56,2.12,2.12,0,0,0,.49-1.47V8.38h1Z"/>
    <path class="cls-3" d="M93.36,9.43a1.28,1.28,0,0,0-.79-.21,1.32,1.32,0,0,0-1.11.63A2.89,2.89,0,0,0,91,11.56v3.32H90V8.38h1V9.72h0a2.28,2.28,0,0,1,.68-1.07,1.56,1.56,0,0,1,1-.39,1.69,1.69,0,0,1,.62.09Z"/>
    <path class="cls-3" d="M100.79,14.88h-1v-1h0a2.19,2.19,0,0,1-2,1.17,2.13,2.13,0,0,1-1.52-.51,1.79,1.79,0,0,1-.55-1.37c0-1.21.71-1.92,2.14-2.12l2-.27c0-1.11-.44-1.66-1.34-1.66a3.22,3.22,0,0,0-2.12.8V8.84a4,4,0,0,1,2.21-.61c1.53,0,2.29.8,2.29,2.42Zm-1-3.29-1.57.22a2.49,2.49,0,0,0-1.09.35,1.07,1.07,0,0,0-.37.92,1,1,0,0,0,.34.77,1.33,1.33,0,0,0,.91.3,1.68,1.68,0,0,0,1.28-.54,2,2,0,0,0,.5-1.37Z"/>
  </g>
  <g>
    <path class="cls-3" d="M23.17,109.29H22.12v-3.73a2.83,2.83,0,0,0-.33-1.56,1.26,1.26,0,0,0-1.12-.48,1.38,1.38,0,0,0-1.13.61,2.32,2.32,0,0,0-.47,1.46v3.7H18v-3.86c0-1.27-.49-1.91-1.48-1.91a1.37,1.37,0,0,0-1.13.57,2.43,2.43,0,0,0-.44,1.5v3.7h-1v-6.5h1v1h0a2.23,2.23,0,0,1,2-1.18,1.91,1.91,0,0,1,1.16.37,1.89,1.89,0,0,1,.68,1A2.32,2.32,0,0,1,21,102.64c1.43,0,2.15.88,2.15,2.65Z"/>
    <path class="cls-3" d="M34.46,109.45a3,3,0,0,1-2.3-.91,3.37,3.37,0,0,1-.86-2.42,3.56,3.56,0,0,1,.89-2.56,3.25,3.25,0,0,1,2.42-.92,2.9,2.9,0,0,1,2.27.9A3.55,3.55,0,0,1,37.7,106a3.5,3.5,0,0,1-.88,2.49A3.1,3.1,0,0,1,34.46,109.45Zm.08-5.93a2,2,0,0,0-1.59.68,2.79,2.79,0,0,0-.59,1.88A2.66,2.66,0,0,0,33,107.9a2,2,0,0,0,1.59.67,1.92,1.92,0,0,0,1.55-.65,3.51,3.51,0,0,0,0-3.74A1.89,1.89,0,0,0,34.54,103.52Z"/>
    <path class="cls-3" d="M51.52,109.29H50.47v-1.1h0a2.61,2.61,0,0,1-4.19.38,3.56,3.56,0,0,1-.74-2.37,3.87,3.87,0,0,1,.82-2.59,2.69,2.69,0,0,1,2.16-1,2.08,2.08,0,0,1,2,1.06h0v-4h1.05Zm-1.05-2.93v-1a1.86,1.86,0,0,0-.52-1.34,1.73,1.73,0,0,0-1.32-.54,1.77,1.77,0,0,0-1.49.7,3,3,0,0,0-.55,1.93,2.74,2.74,0,0,0,.52,1.77,1.73,1.73,0,0,0,1.41.65,1.77,1.77,0,0,0,1.41-.63A2.35,2.35,0,0,0,50.47,106.36Z"/>
    <path class="cls-3" d="M65.49,109.29h-1v-1h0a2.14,2.14,0,0,1-2,1.18c-1.55,0-2.33-.93-2.33-2.77v-3.89h1v3.72c0,1.37.52,2.06,1.57,2.06A1.58,1.58,0,0,0,64,108a2.16,2.16,0,0,0,.5-1.47v-3.75h1Z"/>
    <path class="cls-3" d="M75.24,109.29h-1V99.67h1Z"/>
    <path class="cls-3" d="M88.61,109.29h-1v-1h0a2.18,2.18,0,0,1-2,1.17,2.15,2.15,0,0,1-1.52-.52,1.76,1.76,0,0,1-.55-1.36c0-1.22.72-1.92,2.15-2.12l1.95-.28c0-1.1-.45-1.65-1.34-1.65a3.15,3.15,0,0,0-2.12.8v-1.07a4,4,0,0,1,2.2-.61c1.53,0,2.3.81,2.3,2.43Zm-1-3.28-1.57.21a2.52,2.52,0,0,0-1.09.36,1,1,0,0,0-.37.91,1,1,0,0,0,.34.78,1.29,1.29,0,0,0,.9.3,1.68,1.68,0,0,0,1.28-.54,1.93,1.93,0,0,0,.51-1.38Z"/>
    <path class="cls-3" d="M100.57,103.85a1.39,1.39,0,0,0-1.9.42,2.89,2.89,0,0,0-.45,1.71v3.31h-1v-6.5h1v1.34h0a2.38,2.38,0,0,1,.68-1.07,1.59,1.59,0,0,1,1-.38,1.75,1.75,0,0,1,.63.09Z"/>
  </g>
  <path class="cls-4" d="M36.2,73.4a29.6,29.6,0,0,1-8.49,5.3A24.42,24.42,0,0,1,19,80.24q-7.69,0-11.84-3.75A12.35,12.35,0,0,1,3,66.91a12.67,12.67,0,0,1,1.56-6.24,12.84,12.84,0,0,1,4.1-4.54,19.49,19.49,0,0,1,5.7-2.59,56.91,56.91,0,0,1,7-1.18,73,73,0,0,0,14.14-2.72c0-1.08,0-1.76,0-2.06q0-4.81-2.25-6.79-3-2.67-9-2.67c-3.73,0-6.49.66-8.27,2s-3.09,3.63-3.94,7L4.34,46a19.2,19.2,0,0,1,3.48-8,15.31,15.31,0,0,1,7-4.71,31.35,31.35,0,0,1,10.63-1.65A28.07,28.07,0,0,1,35.2,33a12.74,12.74,0,0,1,5.51,3.55,12.38,12.38,0,0,1,2.47,5.39,43.6,43.6,0,0,1,.4,7.28v10.5q0,11,.49,13.93A18.16,18.16,0,0,0,46,79.25H37.73A17.92,17.92,0,0,1,36.2,73.4Zm-.63-17.55a58.06,58.06,0,0,1-13,3,30,30,0,0,0-6.93,1.58A6.91,6.91,0,0,0,12.55,63a6.92,6.92,0,0,0,1.3,9q2.4,2.1,7,2.1A16.39,16.39,0,0,0,29,72a12.27,12.27,0,0,0,5.24-5.44,18.86,18.86,0,0,0,1.28-7.86Z"/>
  <path class="cls-4" d="M47.68,79.75V33h7.11v6.6a16.7,16.7,0,0,1,5.84-5.51,16.49,16.49,0,0,1,8.29-2.08,15.38,15.38,0,0,1,8.5,2.15,11.51,11.51,0,0,1,4.67,6q5.56-8.16,14.48-8.16,7,0,10.72,3.84T111,47.73v32h-7.92V50.36a21.37,21.37,0,0,0-.77-6.83,6.54,6.54,0,0,0-2.8-3.36,8.76,8.76,0,0,0-4.76-1.28,11.1,11.1,0,0,0-8.2,3.27q-3.27,3.29-3.27,10.48V79.75H75.4V49.44q0-5.28-1.93-7.91c-1.29-1.76-3.39-2.64-6.32-2.64A11.49,11.49,0,0,0,61,40.65a9.93,9.93,0,0,0-4.1,5.14,28.88,28.88,0,0,0-1.28,9.75V79.75Z"/>
</svg>
