<?xml version="1.0" encoding="UTF-8"?>
<!DOCTYPE svg PUBLIC "-//W3C//DTD SVG 1.1//EN" "http://www.w3.org/Graphics/SVG/1.1/DTD/svg11.dtd">
<svg xmlns="http://www.w3.org/2000/svg" version="1.1" width="114px" height="114px" style="shape-rendering:geometricPrecision; text-rendering:geometricPrecision; image-rendering:optimizeQuality; fill-rule:evenodd; clip-rule:evenodd" xmlns:xlink="http://www.w3.org/1999/xlink">
<g><path style="opacity:0.978" fill="#818181" d="M 6.5,-0.5 C 39.8333,-0.5 73.1667,-0.5 106.5,-0.5C 109.432,0.799728 111.766,2.79973 113.5,5.5C 113.5,40.1667 113.5,74.8333 113.5,109.5C 111.809,110.864 110.142,112.197 108.5,113.5C 74.1667,113.5 39.8333,113.5 5.5,113.5C 2.79973,111.766 0.799728,109.432 -0.5,106.5C -0.5,73.1667 -0.5,39.8333 -0.5,6.5C 1.5,3.83333 3.83333,1.5 6.5,-0.5 Z"/></g>
<g><path style="opacity:1" fill="#aeaeae" d="M 68.5,4.5 C 70.337,4.63945 70.6704,5.30612 69.5,6.5C 68.7025,6.04311 68.3691,5.37644 68.5,4.5 Z"/></g>
<g><path style="opacity:1" fill="#c3c3c3" d="M 27.5,7.5 C 33.2354,6.82127 34.902,9.1546 32.5,14.5C 31.5481,12.9547 31.2148,11.288 31.5,9.5C 30.5,9.5 29.5,9.5 28.5,9.5C 28.6602,11.1992 28.4935,12.8659 28,14.5C 27.5034,12.1902 27.3367,9.85684 27.5,7.5 Z"/></g>
<g><path style="opacity:1" fill="#c3c3c3" d="M 79.5,7.5 C 85.2354,6.82127 86.902,9.1546 84.5,14.5C 83.5481,12.9547 83.2148,11.288 83.5,9.5C 82.5,9.5 81.5,9.5 80.5,9.5C 80.6602,11.1992 80.4935,12.8659 80,14.5C 79.5034,12.1902 79.3367,9.85684 79.5,7.5 Z"/></g>
<g><path style="opacity:1" fill="#c4c4c4" d="M 21.5,7.5 C 27.0956,8.61042 27.7623,10.9438 23.5,14.5C 19.1675,13.1718 18.5008,10.8385 21.5,7.5 Z"/></g>
<g><path style="opacity:1" fill="#c3c3c3" d="M 49.5,7.5 C 51.256,8.55213 51.9227,10.2188 51.5,12.5C 52.5,12.5 53.5,12.5 54.5,12.5C 54.3398,10.8008 54.5065,9.13414 55,7.5C 55.4966,9.80982 55.6633,12.1432 55.5,14.5C 50.0936,15.2647 48.0936,12.9313 49.5,7.5 Z"/></g>
<g><path style="opacity:1" fill="#c4c4c4" d="M 67.5,7.5 C 66.8333,8.16667 66.1667,8.83333 65.5,9.5C 64.1667,10.5 64.1667,11.5 65.5,12.5C 66.1667,13.1667 66.8333,13.8333 67.5,14.5C 62.5072,14.003 61.5072,11.8363 64.5,8C 65.448,7.51722 66.448,7.35055 67.5,7.5 Z"/></g>
<g><path style="opacity:1" fill="#ababab" d="M 67.5,7.5 C 68.5,7.5 69.5,7.5 70.5,7.5C 70.5,9.83333 70.5,12.1667 70.5,14.5C 69.5,14.5 68.5,14.5 67.5,14.5C 66.8333,13.8333 66.1667,13.1667 65.5,12.5C 66.5,12.5 67.5,12.5 68.5,12.5C 68.5,11.5 68.5,10.5 68.5,9.5C 67.5,9.5 66.5,9.5 65.5,9.5C 66.1667,8.83333 66.8333,8.16667 67.5,7.5 Z"/></g>
<g><path style="opacity:1" fill="#c4c4c4" d="M 73.5,7.5 C 79.0956,8.61042 79.7623,10.9438 75.5,14.5C 71.1675,13.1718 70.5008,10.8385 73.5,7.5 Z"/></g>
<g><path style="opacity:1" fill="#818181" d="M 21.5,9.5 C 22.5,9.5 23.5,9.5 24.5,9.5C 24.5,10.5 24.5,11.5 24.5,12.5C 23.5,12.5 22.5,12.5 21.5,12.5C 21.5,11.5 21.5,10.5 21.5,9.5 Z"/></g>
<g><path style="opacity:1" fill="#d7d7d7" d="M 41.5,5.5 C 42.2674,6.17197 42.9341,7.0053 43.5,8C 42.6804,10.3332 42.3471,12.4999 42.5,14.5C 41.1513,11.4592 40.818,8.45915 41.5,5.5 Z"/></g>
<g><path style="opacity:1" fill="#808080" d="M 65.5,9.5 C 66.5,9.5 67.5,9.5 68.5,9.5C 68.5,10.5 68.5,11.5 68.5,12.5C 67.5,12.5 66.5,12.5 65.5,12.5C 64.1667,11.5 64.1667,10.5 65.5,9.5 Z"/></g>
<g><path style="opacity:1" fill="#818181" d="M 73.5,9.5 C 74.5,9.5 75.5,9.5 76.5,9.5C 76.5,10.5 76.5,11.5 76.5,12.5C 75.5,12.5 74.5,12.5 73.5,12.5C 73.5,11.5 73.5,10.5 73.5,9.5 Z"/></g>
<g><path style="opacity:1" fill="#c1c1c1" d="M 35.5,7.5 C 38.7181,7.65091 39.0515,8.48424 36.5,10C 39.1242,10.5764 39.7908,11.9098 38.5,14C 37.0563,14.7805 35.723,14.6139 34.5,13.5C 35.376,12.7492 36.376,12.2492 37.5,12C 34.715,11.2742 34.0484,9.77424 35.5,7.5 Z"/></g>
<g><path style="opacity:1" fill="#cecdcd" d="M 45.5,7.5 C 46.552,7.35055 47.552,7.51722 48.5,8C 46.9262,9.82586 46.0929,11.9925 46,14.5C 45.5034,12.1902 45.3367,9.85684 45.5,7.5 Z"/></g>
<g><path style="opacity:1" fill="#c8c8c8" d="M 88.5,7.5 C 91.565,8.42237 94.565,8.7557 97.5,8.5C 96.9747,9.19238 96.3081,9.69238 95.5,10C 98.1321,11.7784 97.9654,13.2784 95,14.5C 93.1886,13.5765 93.3553,12.7431 95.5,12C 93.1667,11.3333 90.8333,11.3333 88.5,12C 89.3279,12.9147 90.3279,13.5814 91.5,14C 86.3823,13.8242 85.3823,11.6576 88.5,7.5 Z"/></g>
<g><path style="opacity:1" fill="#c2c2c2" d="M 15.5,7.5 C 19.5,8.16667 19.5,8.83333 15.5,9.5C 15.5,10.5 15.5,11.5 15.5,12.5C 16.675,12.281 17.675,12.6143 18.5,13.5C 13.3961,13.9051 12.3961,11.9051 15.5,7.5 Z"/></g>
<g><path style="opacity:1" fill="#c2c2c2" d="M 58.5,7.5 C 62.5,8.16667 62.5,8.83333 58.5,9.5C 58.5,10.5 58.5,11.5 58.5,12.5C 59.675,12.281 60.675,12.6143 61.5,13.5C 56.3961,13.9051 55.3961,11.9051 58.5,7.5 Z"/></g>
<g><path style="opacity:1" fill="#f8f8f8" d="M 17.5,33.5 C 23.2617,33.1493 28.9284,33.6493 34.5,35C 38.4899,37.4745 41.1566,40.9745 42.5,45.5C 42.3918,46.4419 42.0585,47.2753 41.5,48C 39.4213,48.8077 37.4213,48.641 35.5,47.5C 31.1322,39.1543 24.7989,37.321 16.5,42C 14.3485,44.4689 12.8485,47.3022 12,50.5C 9.6943,59.7102 11.861,67.5436 18.5,74C 28.4799,77.0253 34.1465,73.5253 35.5,63.5C 38.1667,63.8333 40.8333,64.1667 43.5,64.5C 42.9059,71.8573 39.2392,77.0239 32.5,80C 17.6985,84.3522 8.19846,79.1855 4,64.5C 1.03023,53.0926 3.86356,43.5926 12.5,36C 14.3146,35.2432 15.9812,34.4098 17.5,33.5 Z"/></g>
<g><path style="opacity:1" fill="#fafafa" d="M 47.5,80.5 C 47.5,65.1667 47.5,49.8333 47.5,34.5C 49.5,34.5 51.5,34.5 53.5,34.5C 53.2148,36.288 53.5481,37.9547 54.5,39.5C 59.996,33.8564 66.6627,32.023 74.5,34C 77.3106,35.6437 79.644,37.8103 81.5,40.5C 83.5769,37.6255 86.2436,35.4589 89.5,34C 98.9493,31.0402 105.783,33.8736 110,42.5C 110.5,55.1623 110.667,67.8289 110.5,80.5C 107.833,80.5 105.167,80.5 102.5,80.5C 102.667,68.8286 102.5,57.1619 102,45.5C 96.1362,37.614 90.1362,37.614 84,45.5C 82.5878,57.1041 82.0878,68.7707 82.5,80.5C 79.8333,80.5 77.1667,80.5 74.5,80.5C 74.6665,68.8286 74.4999,57.1619 74,45.5C 73.1642,41.5035 70.6642,39.5035 66.5,39.5C 61.7063,39.9746 58.2063,42.308 56,46.5C 54.6167,57.7789 54.1167,69.1123 54.5,80.5C 52.1667,80.5 49.8333,80.5 47.5,80.5 Z"/></g>
<g><path style="opacity:1" fill="#dadada" d="M 53.5,34.5 C 51.5,34.5 49.5,34.5 47.5,34.5C 47.5,49.8333 47.5,65.1667 47.5,80.5C 46.5037,65.0089 46.1704,49.3422 46.5,33.5C 49.0593,33.1984 51.3926,33.5318 53.5,34.5 Z"/></g>
<g><path style="opacity:1" fill="#cbcbcb" d="M 86.5,101.5 C 88.1667,101.5 89.8333,101.5 91.5,101.5C 91.5,102.5 91.5,103.5 91.5,104.5C 86.203,105.032 86.203,105.866 91.5,107C 86.0833,108.42 84.4166,106.586 86.5,101.5 Z"/></g>
<g><path style="opacity:1" fill="#d5d5d5" d="M 43.5,98.5 C 44.4767,101.287 44.81,104.287 44.5,107.5C 39.3327,108.508 37.666,106.675 39.5,102C 40.7932,101.51 42.1266,101.343 43.5,101.5C 43.5,100.5 43.5,99.5 43.5,98.5 Z"/></g>
<g><path style="opacity:1" fill="#d3d3d3" d="M 50.5,101.5 C 52.3643,108.018 54.1976,108.018 56,101.5C 56.4955,103.473 56.6621,105.473 56.5,107.5C 51.5,108.5 49.5,106.5 50.5,101.5 Z"/></g>
<g><path style="opacity:1" fill="#d4d4d4" d="M 13.5,101.5 C 16.5,101.5 19.5,101.5 22.5,101.5C 22.6369,108.626 21.9702,108.959 20.5,102.5C 18.9309,103.714 18.0976,105.381 18,107.5C 16.8944,101.044 15.5611,101.044 14,107.5C 13.5045,105.527 13.3379,103.527 13.5,101.5 Z"/></g>
<g><path style="opacity:1" fill="#c8c8c8" d="M 28.5,101.5 C 33.1225,100.408 34.9558,102.075 34,106.5C 28.4205,108.752 26.5871,107.085 28.5,101.5 Z"/></g>
<g><path style="opacity:1" fill="#848484" d="M 29.5,102.5 C 30.5,102.5 31.5,102.5 32.5,102.5C 32.5,103.833 32.5,105.167 32.5,106.5C 31.5,106.5 30.5,106.5 29.5,106.5C 29.5,105.167 29.5,103.833 29.5,102.5 Z"/></g>
<g><path style="opacity:1" fill="#c3c3c3" d="M 96.5,101.5 C 99.5983,101.413 99.9316,101.913 97.5,103C 99.4386,103.908 100.439,105.408 100.5,107.5C 98.8008,107.66 97.1341,107.494 95.5,107C 99.1358,106.374 99.1358,105.207 95.5,103.5C 95.8627,102.817 96.1961,102.15 96.5,101.5 Z"/></g>
<g><path style="opacity:1" fill="#888888" d="M 40.5,102.5 C 41.5,102.5 42.5,102.5 43.5,102.5C 43.5,103.833 43.5,105.167 43.5,106.5C 42.5,106.5 41.5,106.5 40.5,106.5C 40.5,105.167 40.5,103.833 40.5,102.5 Z"/></g>
<g><path style="opacity:1" fill="#dddddd" d="M 68.5,107.5 C 69.209,106.596 70.209,106.263 71.5,106.5C 71.5,105.5 71.5,104.5 71.5,103.5C 70.7375,102.732 69.7375,102.232 68.5,102C 69.7932,101.51 71.1266,101.343 72.5,101.5C 72.5,103.5 72.5,105.5 72.5,107.5C 71.1667,107.5 69.8333,107.5 68.5,107.5 Z"/></g>
<g><path style="opacity:1" fill="#d9d9d9" d="M 78.5,101.5 C 79.552,101.351 80.552,101.517 81.5,102C 79.9544,103.44 79.121,105.273 79,107.5C 78.5045,105.527 78.3379,103.527 78.5,101.5 Z"/></g>
<g><path style="opacity:1" fill="#bab9b9" d="M 71.5,103.5 C 71.5,104.5 71.5,105.5 71.5,106.5C 70.209,106.263 69.209,106.596 68.5,107.5C 67.3657,105.04 68.3657,103.707 71.5,103.5 Z"/></g>
</svg>
