<?xml version="1.0" encoding="UTF-8"?>
<!DOCTYPE svg PUBLIC "-//W3C//DTD SVG 1.1//EN" "http://www.w3.org/Graphics/SVG/1.1/DTD/svg11.dtd">
<svg xmlns="http://www.w3.org/2000/svg" version="1.1" width="114px" height="114px" style="shape-rendering:geometricPrecision; text-rendering:geometricPrecision; image-rendering:optimizeQuality; fill-rule:evenodd; clip-rule:evenodd" xmlns:xlink="http://www.w3.org/1999/xlink">
<g><path style="opacity:0.977" fill="#050505" d="M 6.5,-0.5 C 39.8333,-0.5 73.1667,-0.5 106.5,-0.5C 109.432,0.799728 111.766,2.79973 113.5,5.5C 113.5,40.1667 113.5,74.8333 113.5,109.5C 111.809,110.864 110.142,112.197 108.5,113.5C 74.1667,113.5 39.8333,113.5 5.5,113.5C 2.79973,111.766 0.799728,109.432 -0.5,106.5C -0.5,73.1667 -0.5,39.8333 -0.5,6.5C 1.5,3.83333 3.83333,1.5 6.5,-0.5 Z"/></g>
<g><path style="opacity:1" fill="#707070" d="M 46.5,4.5 C 48.337,4.63945 48.6704,5.30612 47.5,6.5C 46.7025,6.04311 46.3691,5.37644 46.5,4.5 Z"/></g>
<g><path style="opacity:1" fill="#9a9a9a" d="M 38.5,7.5 C 40.3643,14.0176 42.1976,14.0176 44,7.5C 44.4966,9.80982 44.6633,12.1432 44.5,14.5C 39.0936,15.2647 37.0936,12.9313 38.5,7.5 Z"/></g>
<g><path style="opacity:1" fill="#9a9a9a" d="M 79.5,7.5 C 81.3643,14.0176 83.1976,14.0176 85,7.5C 85.4966,9.80982 85.6633,12.1432 85.5,14.5C 80.0936,15.2647 78.0936,12.9313 79.5,7.5 Z"/></g>
<g><path style="opacity:1" fill="#9d9d9d" d="M 88.5,7.5 C 92.9704,7.03014 93.4704,8.03014 90,10.5C 89.6667,11.8333 89.3333,13.1667 89,14.5C 88.5034,12.1902 88.3367,9.85684 88.5,7.5 Z"/></g>
<g><path style="opacity:1" fill="#b9b9b9" d="M 19.5,8.5 C 19.6602,10.1992 19.4935,11.8659 19,13.5C 18.4646,11.7295 17.6313,11.3961 16.5,12.5C 16.8627,13.1835 17.1961,13.8501 17.5,14.5C 13.4964,12.6023 13.8297,11.1023 18.5,10C 17.5294,8.79637 16.5294,8.29637 15.5,8.5C 16.9584,7.21798 18.2918,7.21798 19.5,8.5 Z"/></g>
<g><path style="opacity:1" fill="#b9b9b9" d="M 99.5,8.5 C 99.6602,10.1992 99.4935,11.8659 99,13.5C 98.4646,11.7295 97.6313,11.3961 96.5,12.5C 96.8627,13.1835 97.1961,13.8501 97.5,14.5C 93.4964,12.6023 93.8297,11.1023 98.5,10C 97.5294,8.79637 96.5294,8.29637 95.5,8.5C 96.9584,7.21798 98.2918,7.21798 99.5,8.5 Z"/></g>
<g><path style="opacity:1" fill="#a9a9a9" d="M 59.5,7.5 C 62.5,7.16667 63.8333,8.5 63.5,11.5C 58.3183,11.5573 58.3183,12.224 63.5,13.5C 57.7938,14.4576 56.4604,12.4576 59.5,7.5 Z"/></g>
<g><path style="opacity:1" fill="#515151" d="M 60.5,8.5 C 63.1368,10.1538 62.8034,10.6538 59.5,10C 60.056,9.61742 60.3893,9.11742 60.5,8.5 Z"/></g>
<g><path style="opacity:1" fill="#a4a3a4" d="M 23.5,7.5 C 24.675,7.28099 25.675,7.61432 26.5,8.5C 25.0451,10.2199 24.2117,12.2199 24,14.5C 23.5034,12.1902 23.3367,9.85684 23.5,7.5 Z"/></g>
<g><path style="opacity:1" fill="#989898" d="M 29.5,7.5 C 31.1667,7.5 32.8333,7.5 34.5,7.5C 35.1132,12.3032 34.7799,14.6365 33.5,14.5C 28.5904,14.4236 27.2571,12.0902 29.5,7.5 Z"/></g>
<g><path style="opacity:1" fill="#0b0b0b" d="M 30.5,9.5 C 31.5,9.5 32.5,9.5 33.5,9.5C 33.5,10.5 33.5,11.5 33.5,12.5C 32.5,12.5 31.5,12.5 30.5,12.5C 30.5,11.5 30.5,10.5 30.5,9.5 Z"/></g>
<g><path style="opacity:1" fill="#929292" d="M 52.5,5.5 C 53.452,6.45196 54.452,7.45196 55.5,8.5C 54.6562,10.6934 54.3229,12.6934 54.5,14.5C 53.914,14.2907 53.414,13.9574 53,13.5C 52.5026,10.854 52.3359,8.1873 52.5,5.5 Z"/></g>
<g><path style="opacity:1" fill="#9c9c9c" d="M 67.5,7.5 C 71.5,8.16667 71.5,8.83333 67.5,9.5C 67.5,10.5 67.5,11.5 67.5,12.5C 68.675,12.281 69.675,12.6143 70.5,13.5C 65.3961,13.9051 64.3961,11.9051 67.5,7.5 Z"/></g>
<g><path style="opacity:1" fill="#929292" d="M 74.5,5.5 C 75.452,6.45196 76.452,7.45196 77.5,8.5C 76.6562,10.6934 76.3229,12.6934 76.5,14.5C 75.914,14.2907 75.414,13.9574 75,13.5C 74.5026,10.854 74.3359,8.1873 74.5,5.5 Z"/></g>
<g><path style="opacity:1" fill="#606060" d="M 19.5,8.5 C 20.4614,10.2646 20.7947,12.2646 20.5,14.5C 19.5,14.5 18.5,14.5 17.5,14.5C 17.1961,13.8501 16.8627,13.1835 16.5,12.5C 17.6313,11.3961 18.4646,11.7295 19,13.5C 19.4935,11.8659 19.6602,10.1992 19.5,8.5 Z"/></g>
<g><path style="opacity:1" fill="#606060" d="M 99.5,8.5 C 100.461,10.2646 100.795,12.2646 100.5,14.5C 99.5,14.5 98.5,14.5 97.5,14.5C 97.1961,13.8501 96.8627,13.1835 96.5,12.5C 97.6313,11.3961 98.4646,11.7295 99,13.5C 99.4935,11.8659 99.6602,10.1992 99.5,8.5 Z"/></g>
<g><path style="opacity:1" fill="#f3f3f3" d="M 19.5,31.5 C 23.5138,31.3345 27.5138,31.5012 31.5,32C 37.1003,32.5406 40.9336,35.3739 43,40.5C 43.0071,53.5867 43.8404,66.5867 45.5,79.5C 42.8333,79.5 40.1667,79.5 37.5,79.5C 37.313,77.4357 36.813,75.4357 36,73.5C 28.7865,79.1927 20.6198,81.026 11.5,79C 3.55106,74.5877 1.38439,68.0877 5,59.5C 7.55902,56.4686 10.7257,54.3019 14.5,53C 20.921,52.5409 27.2543,51.5409 33.5,50C 36.2773,46.4253 35.9439,43.092 32.5,40C 27.5893,38.5076 22.5893,38.1743 17.5,39C 14.6923,40.7933 13.0256,43.2933 12.5,46.5C 10.1432,46.6633 7.80982,46.4966 5.5,46C 4.79183,42.0512 6.12517,38.7178 9.5,36C 12.7029,33.9971 16.0363,32.4971 19.5,31.5 Z"/></g>
<g><path style="opacity:1" fill="#f6f6f6" d="M 48.5,79.5 C 48.5,64.1667 48.5,48.8333 48.5,33.5C 50.5,33.5 52.5,33.5 54.5,33.5C 54.2148,35.288 54.5481,36.9547 55.5,38.5C 60.996,32.8564 67.6627,31.023 75.5,33C 77.9768,34.6427 80.3102,36.476 82.5,38.5C 89.1821,32.3756 96.8487,30.8756 105.5,34C 108.754,36.3419 110.588,39.5085 111,43.5C 111.5,55.4954 111.667,67.4954 111.5,79.5C 108.833,79.5 106.167,79.5 103.5,79.5C 103.667,68.1618 103.5,56.8284 103,45.5C 99.4753,38.1622 94.3087,36.8288 87.5,41.5C 85.7026,43.1311 84.5359,45.1311 84,47.5C 83.5002,58.1615 83.3335,68.8281 83.5,79.5C 80.8333,79.5 78.1667,79.5 75.5,79.5C 75.6665,67.8286 75.4999,56.1619 75,44.5C 71.6215,38.1139 66.7881,36.9472 60.5,41C 58.9512,42.214 57.7845,43.714 57,45.5C 55.6167,56.7789 55.1167,68.1123 55.5,79.5C 53.1667,79.5 50.8333,79.5 48.5,79.5 Z"/></g>
<g><path style="opacity:1" fill="#b5b5b5" d="M 54.5,33.5 C 52.5,33.5 50.5,33.5 48.5,33.5C 48.5,48.8333 48.5,64.1667 48.5,79.5C 47.5037,64.0089 47.1704,48.3422 47.5,32.5C 50.0593,32.1984 52.3926,32.5318 54.5,33.5 Z"/></g>
<g><path style="opacity:1" fill="#0b0b0b" d="M 31.5,56.5 C 32.8333,56.5 34.1667,56.5 35.5,56.5C 35.7239,70.0974 29.0573,75.5974 15.5,73C 10.274,68.7486 10.274,64.4153 15.5,60C 21.0344,59.1398 26.3678,57.9732 31.5,56.5 Z"/></g>
<g><path style="opacity:1" fill="#989898" d="M 13.5,101.5 C 16.5,101.5 19.5,101.5 22.5,101.5C 22.6633,103.857 22.4966,106.19 22,108.5C 20.8944,102.044 19.5611,102.044 18,108.5C 16.8944,102.044 15.5611,102.044 14,108.5C 13.5034,106.19 13.3367,103.857 13.5,101.5 Z"/></g>
<g><path style="opacity:1" fill="#919191" d="M 32.5,101.5 C 37.3276,101.385 38.6609,103.552 36.5,108C 30.7377,108.418 29.4044,106.251 32.5,101.5 Z"/></g>
<g><path style="opacity:1" fill="#9a9a9a" d="M 59.5,101.5 C 61.3643,108.018 63.1976,108.018 65,101.5C 65.4966,103.81 65.6633,106.143 65.5,108.5C 60.0936,109.265 58.0936,106.931 59.5,101.5 Z"/></g>
<g><path style="opacity:1" fill="#050505" d="M 32.5,103.5 C 33.5,103.5 34.5,103.5 35.5,103.5C 35.5,104.5 35.5,105.5 35.5,106.5C 34.5,106.5 33.5,106.5 32.5,106.5C 32.5,105.5 32.5,104.5 32.5,103.5 Z"/></g>
<g><path style="opacity:1" fill="#9e9e9e" d="M 82.5,101.5 C 84.1439,101.286 85.6439,101.62 87,102.5C 87.4955,104.473 87.6621,106.473 87.5,108.5C 85.8333,108.5 84.1667,108.5 82.5,108.5C 82.5,107.167 82.5,105.833 82.5,104.5C 83.552,104.649 84.552,104.483 85.5,104C 83.8807,103.764 82.8807,102.931 82.5,101.5 Z"/></g>
<g><path style="opacity:1" fill="#9a9a9a" d="M 49.5,98.5 C 50.4794,101.625 50.8128,104.958 50.5,108.5C 44.8419,109.321 43.1752,107.154 45.5,102C 46.7932,101.51 48.1266,101.343 49.5,101.5C 49.5,100.5 49.5,99.5 49.5,98.5 Z"/></g>
<g><path style="opacity:1" fill="#0b0b0b" d="M 46.5,103.5 C 47.5,103.5 48.5,103.5 49.5,103.5C 49.5,104.5 49.5,105.5 49.5,106.5C 48.5,106.5 47.5,106.5 46.5,106.5C 46.5,105.5 46.5,104.5 46.5,103.5 Z"/></g>
<g><path style="opacity:1" fill="#a4a3a4" d="M 96.5,101.5 C 97.675,101.281 98.675,101.614 99.5,102.5C 98.0451,104.22 97.2117,106.22 97,108.5C 96.5034,106.19 96.3367,103.857 96.5,101.5 Z"/></g>
</svg>
